<svg width="25" height="16" viewBox="0 0 25 16" fill="none" xmlns="http://www.w3.org/2000/svg">
<g clip-path="url(#clip0_24_340)">
<path d="M16.6667 13.5489H7.07672V12.1872H15.3439V1.3617H1.32275V12.1872H3.7037V13.5489H0V0H16.6667V13.5489Z" fill="#1E2738"/>
<path d="M25 13.5489H21.2963V12.1872H23.6773V7.62552L21.5608 3.81275H16.6667V12.1872H17.8571V13.5489H15.3439V2.45105H22.3545L25 7.28509V13.5489Z" fill="#1E2738"/>
<path d="M5.35714 16C3.7037 16 2.31481 14.5702 2.31481 12.8681C2.31481 11.1659 3.7037 9.73615 5.35714 9.73615C7.01058 9.73615 8.39947 11.1659 8.39947 12.8681C8.39947 14.5702 7.07672 16 5.35714 16ZM5.35714 11.0978C4.43121 11.0978 3.63756 11.9149 3.63756 12.8681C3.63756 13.8213 4.43121 14.6383 5.35714 14.6383C6.28307 14.6383 7.07672 13.8213 7.07672 12.8681C7.07672 11.9149 6.3492 11.0978 5.35714 11.0978Z" fill="#1E2738"/>
<path d="M19.5767 16C17.9233 16 16.5344 14.5702 16.5344 12.8681C16.5344 11.1659 17.9233 9.73615 19.5767 9.73615C21.2302 9.73615 22.6191 11.1659 22.6191 12.8681C22.6191 14.5702 21.2302 16 19.5767 16ZM19.5767 11.0978C18.6508 11.0978 17.8571 11.9149 17.8571 12.8681C17.8571 13.8213 18.6508 14.6383 19.5767 14.6383C20.5026 14.6383 21.2963 13.8213 21.2963 12.8681C21.2963 11.9149 20.5026 11.0978 19.5767 11.0978Z" fill="#1E2738"/>
</g>
<defs>
<clipPath id="clip0_24_340">
<rect width="25" height="16" fill="white"/>
</clipPath>
</defs>
</svg>
