<svg width="20" height="20" viewBox="0 0 20 20" fill="none" xmlns="http://www.w3.org/2000/svg">
<g clip-path="url(#clip0_24_301)">
<path d="M10.0001 0.000244141C4.486 0.000244141 0 4.48618 0 10.0002C0 15.5142 4.486 20.0001 10.0001 20.0001C15.5141 20.0001 20 15.5142 20 10.0002C20 4.48618 15.5141 0.000244141 10.0001 0.000244141ZM10.0001 18.3608C5.38993 18.3608 1.63933 14.6103 1.63933 10.0002C1.63933 5.39011 5.38993 1.63958 10.0001 1.63958C14.6101 1.63958 18.3607 5.39011 18.3607 10.0002C18.3607 14.6103 14.6101 18.3608 10.0001 18.3608Z" fill="#1E2738"/>
<path d="M14.326 6.16198L8.38858 12.0994L5.67397 9.38484C5.35384 9.06478 4.8349 9.06478 4.51477 9.38484C4.1947 9.70497 4.1947 10.2239 4.51477 10.544L7.80897 13.8383C7.96904 13.9983 8.17881 14.0783 8.38858 14.0783C8.59835 14.0783 8.80812 13.9983 8.96818 13.8383L15.4852 7.32125C15.8052 7.00112 15.8052 6.48217 15.4852 6.16204C15.1651 5.84191 14.646 5.84191 14.326 6.16198Z" fill="#1E2738"/>
</g>
<defs>
<clipPath id="clip0_24_301">
<rect width="20" height="20" fill="white"/>
</clipPath>
</defs>
</svg>
