<svg width="24" height="24" viewBox="0 0 24 24" fill="none" xmlns="http://www.w3.org/2000/svg">
<g clip-path="url(#clip0_24_256)">
<path d="M23.9998 0V24H-8.01086e-05V0H23.9998ZM1.24443 11.3777H11.3776V1.24451H1.24443V11.3777ZM12.6221 1.24451V11.3777H22.7552V1.24451H12.6221ZM22.7552 12.6223H12.6221V22.7555H22.7552V12.6223ZM11.3776 22.7555V12.6223H1.24443V22.7555H11.3776Z" fill="#1E2738"/>
<path d="M18.0775 9.82285H16.833V7.51478H14.525V6.27027H16.833V3.96228H18.0775V6.27027H20.3856V7.51478H18.0775V9.82285Z" fill="#1E2738"/>
<path d="M14.9433 16.0982L15.8233 15.2181L17.4553 16.8501L19.0874 15.2181L19.9674 16.0982L18.3354 17.7301L19.9674 19.3621L19.0874 20.2422L17.4553 18.6102L15.8233 20.2422L14.9433 19.3621L16.5753 17.7301L14.9433 16.0982Z" fill="#1E2738"/>
<path d="M3.37653 6.27026H9.23718V7.51478H3.37653V6.27026Z" fill="#1E2738"/>
<path d="M3.37653 17.1079H9.23718V18.3524H3.37653V17.1079Z" fill="#1E2738"/>
<path d="M6.30697 16.6424C5.40635 16.6424 4.6735 15.9096 4.6735 15.0089C4.6735 14.1082 5.40627 13.3754 6.30697 13.3754C7.20766 13.3754 7.94043 14.1082 7.94043 15.0089C7.94043 15.9096 7.20758 16.6424 6.30697 16.6424ZM6.30697 14.62C6.09249 14.62 5.91802 14.7945 5.91802 15.009C5.91802 15.2234 6.09249 15.3979 6.30697 15.3979C6.52144 15.3979 6.69592 15.2234 6.69592 15.009C6.69592 14.7945 6.52144 14.62 6.30697 14.62Z" fill="#1E2738"/>
<path d="M6.30697 18.7682C7.20758 18.7682 7.94043 19.501 7.94043 20.4017C7.94043 21.3024 7.20766 22.0352 6.30697 22.0352C5.40627 22.0352 4.6735 21.3024 4.6735 20.4017C4.6735 19.501 5.40627 18.7682 6.30697 18.7682ZM6.30697 20.7906C6.52144 20.7906 6.69592 20.6161 6.69592 20.4016C6.69592 20.1872 6.52144 20.0127 6.30697 20.0127C6.09249 20.0127 5.91802 20.1872 5.91802 20.4016C5.91802 20.6161 6.09249 20.7906 6.30697 20.7906Z" fill="#1E2738"/>
</g>
<defs>
<clipPath id="clip0_24_256">
<rect width="24" height="24" fill="white" transform="matrix(-1 0 0 1 24 0)"/>
</clipPath>
</defs>
</svg>
