<svg width="73" height="14" viewBox="0 0 73 14" fill="none" xmlns="http://www.w3.org/2000/svg">
<g clip-path="url(#clip0_58_467)">
<path fill-rule="evenodd" clip-rule="evenodd" d="M47.6479 7.71084C47.6906 7.99084 47.7119 8.20622 47.7759 8.42161C48.2451 10.4247 49.8019 11.7601 51.828 11.9324C53.6195 12.0831 55.0271 11.3939 56.0721 9.90776C56.5839 9.19699 57.4157 9.06776 58.0768 9.6493C58.4607 9.97238 58.5034 10.4031 58.2048 10.8124C58.0342 11.0278 57.8849 11.2431 57.7143 11.4801C57.0318 12.4278 56.1361 13.0739 55.0271 13.4616C53.2356 14.0862 51.4441 14.1724 49.674 13.5047C47.2853 12.6216 45.8778 10.8555 45.4725 8.33546C45.2379 6.78469 45.3872 5.23392 46.091 3.83392C47.1147 1.83084 48.7142 0.603149 50.9323 0.236995C52.4038 7.18832e-05 53.8541 0.150841 55.219 0.818533C57.1598 1.74469 58.3327 3.31699 58.7806 5.40623C58.9086 5.98776 58.9512 6.5693 58.9939 7.15084C59.0365 7.51699 58.8659 7.66776 58.5034 7.6893C58.3327 7.6893 58.1835 7.6893 58.0128 7.6893C54.7071 7.6893 51.4015 7.6893 48.1171 7.6893C47.9678 7.71084 47.8612 7.71084 47.6479 7.71084ZM56.6692 5.51392C56.392 3.64007 54.1526 2.00315 52.0839 2.13238C49.9299 2.26161 47.7972 3.92007 47.7119 5.51392C50.6763 5.51392 53.6834 5.51392 56.6692 5.51392Z" fill="#B1B1B1"/>
<path fill-rule="evenodd" clip-rule="evenodd" d="M30.7143 7.64608C30.7356 7.83993 30.7569 7.96916 30.7782 8.11993C31.1835 10.3384 32.9749 11.8676 35.1929 11.9107C36.8778 11.9322 38.1787 11.243 39.1598 9.86454C39.6716 9.13224 40.5887 9.04608 41.2285 9.69224C41.5271 10.0153 41.591 10.403 41.2925 10.7907C41.1645 10.9845 41.0365 11.1569 40.8872 11.3076C40.1621 12.3845 39.1598 13.0738 37.9441 13.483C36.1527 14.0861 34.3612 14.1292 32.6337 13.4399C30.1598 12.4707 28.7735 10.5538 28.4749 7.883C28.3256 6.5907 28.4536 5.34147 28.9868 4.15685C30.0318 1.91685 31.7166 0.538388 34.1692 0.215311C35.4702 0.0430031 36.7711 0.150695 37.9655 0.64608C40.1408 1.5507 41.3991 3.25223 41.8896 5.55685C41.9749 6.07377 42.0389 6.63377 42.0602 7.1507C42.0816 7.58147 41.9963 7.66762 41.5484 7.66762C40.7806 7.66762 39.9702 7.66762 39.1811 7.66762C36.5365 7.66762 33.892 7.66762 31.2901 7.66762C31.0982 7.64608 30.9275 7.64608 30.7143 7.64608ZM39.7782 5.44916C39.501 3.59685 37.3256 2.02454 35.1929 2.06762C33.1242 2.1107 30.9702 3.7907 30.7996 5.44916C33.7854 5.44916 36.7498 5.44916 39.7782 5.44916Z" fill="#B1B1B1"/>
<path fill-rule="evenodd" clip-rule="evenodd" d="M67.8232 8.63728C67.9938 8.78805 68.0792 8.8742 68.1858 8.96036C69.3374 9.95113 70.4891 10.9419 71.6194 11.9327C71.6834 11.9973 71.7901 12.0834 71.854 12.1481C72.2806 12.5788 72.3232 13.2034 71.918 13.6342C71.5341 14.065 70.937 14.1296 70.4891 13.7634C69.6787 13.0957 68.9109 12.4065 68.1218 11.7388C66.9915 10.7696 65.8825 9.80036 64.7521 8.83113C64.6668 8.74497 64.5389 8.65882 64.3682 8.52959C64.3682 8.76651 64.3469 8.91728 64.3469 9.06805C64.3469 11.8034 64.3469 9.75728 64.3469 12.4927C64.3469 12.6219 64.3469 12.7511 64.3469 12.8804C64.3043 13.4834 63.8564 13.9142 63.2592 13.8711C62.6834 13.8496 62.2995 13.4188 62.2782 12.8157C62.2782 12.6865 62.2782 12.5573 62.2782 12.4281C62.2782 7.0219 62.2782 6.39728 62.2782 0.991127C62.2782 0.818819 62.2782 0.66805 62.2782 0.495743C62.2782 0.10805 62.3209 0.0434348 62.6834 0.0434348C63.1739 0.0218963 63.6645 0.0218963 64.155 0.0218963C65.328 0.0218963 66.5436 0.0649733 67.7166 0.000357877C69.7 -0.085796 71.918 1.52959 72.1313 3.87728C72.3232 5.98805 70.8943 7.99113 68.7616 8.4219C68.4844 8.48651 68.1858 8.57267 67.8232 8.63728ZM64.219 6.97882C64.3469 7.00036 64.4322 7.00036 64.4962 7.00036C65.4773 7.00036 66.4796 7.00036 67.4607 7.00036C67.7379 7.00036 68.0365 6.97882 68.3138 6.87113C69.2308 6.59113 69.9559 6.03113 70.1905 5.04036C70.5957 3.33882 69.3375 1.78805 67.61 1.78805C66.5863 1.78805 65.5839 1.78805 64.5389 1.78805C64.4109 1.78805 64.3043 1.80959 64.1763 1.80959C64.219 3.53267 64.219 5.2342 64.219 6.97882Z" fill="#B1B1B1"/>
<path fill-rule="evenodd" clip-rule="evenodd" d="M23.0365 7.6678C21.0744 7.6678 19.1763 7.6678 17.2356 7.6678C17.2356 7.84011 17.2143 7.99088 17.2143 8.14165C17.2143 9.64934 17.2143 11.1355 17.2143 12.6432C17.2143 12.837 17.2143 13.0309 17.1716 13.1817C17.0223 13.634 16.5531 13.914 16.1052 13.8924C15.6147 13.8493 15.2095 13.4616 15.1455 12.9663C15.1242 12.837 15.1455 12.7293 15.1455 12.6001C15.1455 7.23704 15.1242 6.59088 15.1242 1.24934C15.1242 1.03396 15.1455 0.818575 15.2095 0.624729C15.3801 0.172422 15.8493 -0.0860398 16.3398 -0.0214244C16.7877 0.0431909 17.1716 0.430883 17.2143 0.904729C17.2356 1.0555 17.2143 1.18473 17.2143 1.3355C17.2143 4.09242 17.2356 2.13242 17.2356 4.88934C17.2356 5.06165 17.2569 5.21242 17.2569 5.36319C17.6195 5.44934 22.6526 5.44934 23.0365 5.36319C23.0365 5.23396 23.0579 5.10473 23.0579 4.95396C23.0579 3.74781 23.0579 2.52011 23.0579 1.31396C23.0579 1.18473 23.0579 1.07704 23.0579 0.947806C23.1005 0.409345 23.5057 0.000114035 24.0389 -0.0214244C24.5721 -0.0429629 25.0626 0.366268 25.1266 0.904729C25.1479 1.03396 25.1266 1.14165 25.1266 1.27088C25.1266 5.04011 25.1266 8.7878 25.1266 12.557C25.1266 12.6863 25.1266 12.794 25.1266 12.9232C25.0626 13.4616 24.5934 13.8924 24.0602 13.8709C23.527 13.8493 23.1005 13.4186 23.0365 12.8801C23.0365 12.7509 23.0365 12.6432 23.0365 12.514C23.0365 11.0709 23.0365 9.58473 23.0365 8.14165C23.0365 8.01242 23.0365 7.86165 23.0365 7.6678Z" fill="#B1B1B1"/>
<path fill-rule="evenodd" clip-rule="evenodd" d="M6.06021 13.9785C4.67396 13.957 3.37301 13.6554 2.1787 12.9231C1.66685 12.6216 1.19766 12.2339 0.813769 11.7816C0.621826 11.5447 0.387229 11.3077 0.301921 11.0062C0.173959 10.6185 0.152632 10.1877 0.515191 9.84313C0.920404 9.45544 1.47491 9.30467 2.02941 9.67082C2.56258 10.0585 2.81851 10.5539 3.26638 11.0062C3.90619 11.6524 4.73794 11.997 5.63367 12.1047C6.46543 12.1908 7.27585 12.1693 8.08628 11.8893C8.40619 11.7601 8.74742 11.6093 9.02467 11.3939C9.53652 10.8124 9.68581 9.9939 9.06732 9.4339C8.76874 9.17544 8.38486 8.98159 8.00097 8.80928C7.06258 8.40005 6.08154 8.12005 5.1005 7.86159C4.29007 7.66775 3.5223 7.40928 2.71187 7.17236C2.4133 7.08621 2.11472 6.9139 1.83747 6.76313C1.09102 6.3539 0.66448 5.70775 0.536518 4.88928C0.301921 3.18775 0.920404 1.65852 2.39197 0.904669C4.69529 -0.236869 7.08391 -0.129177 9.38723 1.18467C9.81377 1.42159 10.219 1.78775 10.5815 2.11082C10.8588 2.34775 11.0721 2.69236 11.1787 3.05852C11.2853 3.51082 11.0721 3.98467 10.5176 4.1139C10.0484 4.22159 9.62183 4.07082 9.28059 3.70467C9.21661 3.64005 9.15263 3.5539 9.10998 3.48928C8.5768 2.67082 7.7877 2.21852 6.84931 2.04621C5.91093 1.8739 4.97254 1.89544 4.0768 2.26159C3.7569 2.39082 3.41566 2.56313 3.15974 2.80005C2.77585 3.31698 2.62657 4.00621 3.13841 4.65236C3.54363 5.04005 4.01282 5.25544 4.52467 5.36313C5.655 5.64313 6.80666 5.94467 7.93699 6.22467C8.66211 6.41852 9.3659 6.65544 10.027 7.04313C10.8801 7.49544 11.4986 8.16313 11.7119 9.13236C11.9678 10.317 11.7119 11.437 10.7948 12.2985C9.74979 13.2462 8.55548 13.7631 7.16922 13.9139C6.78533 13.957 6.40145 13.957 6.06021 13.9785Z" fill="#B1B1B1"/>
</g>
<defs>
<clipPath id="clip0_58_467">
<rect width="72" height="14" fill="white" transform="translate(0.195312)"/>
</clipPath>
</defs>
</svg>
