<svg width="30" height="30" viewBox="0 0 30 30" fill="none" xmlns="http://www.w3.org/2000/svg">
<path d="M15 0C6.71594 0 0.000213623 6.71583 0.000213623 14.9999C0.000213623 23.2836 6.71585 30 14.9998 30C23.2837 30 30 23.2836 30 14.9999C30 6.71583 23.2838 0 15 0ZM13.5099 7.09923C13.5099 6.27624 14.177 5.60894 15.0002 5.60894C15.8234 5.60894 16.4904 6.27624 16.4904 7.09923V11.5429C16.4904 12.3659 15.8234 13.0332 15.0002 13.0332C14.177 13.0332 13.5099 12.3659 13.5099 11.5429V7.09923ZM15.0002 22.6227C10.804 22.6227 7.39024 19.209 7.39024 15.0131C7.39024 11.7729 9.42652 9.00081 12.2859 7.90532V10.6538C10.8309 11.5629 9.85771 13.1748 9.85771 15.0133C9.85771 17.8487 12.1647 20.1554 15.0001 20.1554C17.8354 20.1554 20.1421 17.8484 20.1421 15.0133C20.1421 13.1748 19.169 11.5631 17.7142 10.6538V7.90532C20.5734 9.00081 22.6097 11.7732 22.6097 15.0131C22.6098 19.209 19.196 22.6227 15.0002 22.6227Z" fill="#1E2738"/>
</svg>
