<svg width="24" height="24" viewBox="0 0 24 24" fill="none" xmlns="http://www.w3.org/2000/svg">
<path d="M21.0581 0H2.23885C1.00197 0 0 0.988017 0 2.22546V15.9389C0 16.7119 0.398853 17.4311 1.05519 17.8402L10.403 23.6613C11.1244 24.1107 12.0371 24.1134 12.7612 23.6683L22.232 17.8386C22.8932 17.4311 23.2964 16.7092 23.2964 15.9319V2.22546C23.2969 0.988554 22.2949 0 21.0581 0Z" fill="#FFD115"/>
<g clip-path="url(#clip0_51_83)">
<path d="M16.7071 9.07023L11.4317 14.3453C11.041 14.736 10.4073 14.736 10.0163 14.3453L7.29309 11.6219C6.90229 11.2311 6.90229 10.5974 7.29309 10.2066C7.68396 9.81571 8.31761 9.81571 8.70831 10.2064L10.7242 12.2223L15.2916 7.65486C15.6825 7.26399 16.3162 7.26428 16.7069 7.65486C17.0977 8.04566 17.0977 8.67921 16.7071 9.07023Z" fill="#1E2738"/>
</g>
<defs>
<clipPath id="clip0_51_83">
<rect width="10" height="10" fill="white" transform="translate(7 6)"/>
</clipPath>
</defs>
</svg>
