<svg width="30" height="28" viewBox="0 0 30 28" fill="none" xmlns="http://www.w3.org/2000/svg">
<path d="M14.9989 0C9.77424 0 5.5238 3.9677 5.5238 8.84432C5.5238 10.7474 6.16295 12.5609 7.37194 14.088C8.6313 15.6795 9.41673 17.5528 9.64308 19.5059C9.74766 20.4086 10.4096 21.1296 11.2867 21.4019V23.3879C11.2867 24.7823 12.1797 25.9796 13.4542 26.5292C13.4542 26.5377 13.4511 26.5457 13.4511 26.5544C13.4511 27.3529 14.1446 27.9999 14.9997 27.9999C15.8553 27.9999 16.5488 27.3529 16.5488 26.5544C16.5488 26.5457 16.5458 26.5377 16.5458 26.5292C17.821 25.9796 18.7132 24.7823 18.7132 23.3879V21.4016C19.5903 21.1291 20.2523 20.4078 20.3569 19.5051C20.5829 17.552 21.3683 15.6784 22.6277 14.0877C23.8369 12.5605 24.4762 10.7474 24.4762 8.84432C24.4762 3.9677 20.2245 0 14.9989 0ZM11.9151 14.0305C11.3418 14.0384 10.7967 13.7239 10.5724 13.1975C10.2811 12.5157 10.6376 11.7441 11.3678 11.4729C12.0975 11.2013 12.9245 11.5336 13.215 12.2151C13.4403 12.7421 13.2764 13.3192 12.8532 13.6811L14.9997 18.7128L17.1464 13.6811C16.7237 13.3192 16.5597 12.7421 16.7849 12.2151C17.0754 11.5337 17.9021 11.2014 18.6322 11.4729C19.362 11.7441 19.7188 12.5157 19.4274 13.1975C19.2033 13.7239 18.6579 14.0384 18.0849 14.0305L15.6945 19.636H14.6059H14.3055L11.9151 14.0305ZM14.9997 25.4371C14.027 25.4371 13.2111 24.8398 12.9226 24.0209H17.0774C16.7898 24.8399 15.9729 25.4371 14.9997 25.4371ZM17.1958 22.6049H12.8038V21.5242H17.1958V22.6049Z" fill="#1E2738"/>
</svg>
