<svg width="149" height="85" viewBox="0 0 149 85" fill="none" xmlns="http://www.w3.org/2000/svg">
<g clip-path="url(#clip0_121_151)">
<path d="M25.4828 43.2038L11.4483 42.723L35.2759 13.0846C28.6207 11.0583 20.2414 12.8099 14.9655 14.321C19.5172 10.4745 28.3103 9.13512 36.4828 11.127L38.5517 8.13916C35.7241 7.41795 33.069 7.07451 30.1034 6.97148C21.8276 6.76542 13.8621 9.10077 8.51724 14.4927C1.89655 21.2584 -1.03448 30.325 0.310344 38.7392C2.51724 52.4765 9.41379 55.2927 14.9655 65.7674C15 65.8361 25.4828 43.2038 25.4828 43.2038Z" fill="white"/>
<path d="M32.1379 34.0687C32.1379 34.0687 47.2759 0.480835 47.4483 2.69513e-05C47.3793 -0.0343165 21.7586 32.7637 15.069 41.1778C18.8276 41.2121 24.3103 41.2808 28.1379 41.3152C25.3103 48.1839 11.7241 76.1394 8.68965 82.802C9.10344 82.802 43.7241 34.4808 43.931 34.2061C43.5862 34.1717 34.931 34.1031 32.1379 34.0687ZM24.7931 55.1899L33.4138 38.6707L21.7241 38.3616L35.7241 18.8889L35.6552 19.1293L25.069 37.2626L36.4138 37.5717L24.7931 55.4303V55.1899Z" fill="white"/>
<path d="M47.2414 49.8324C50.5862 46.2607 51.4483 41.5557 51.4483 41.5557C51.4483 41.5557 49.4483 44.8526 46.7241 47.0506C44.1379 49.1112 41.3793 50.794 41.3793 50.794L35.4483 57.1819C35.4483 57.1819 43.0345 54.2971 47.2414 49.8324Z" fill="white"/>
<path d="M44.4483 10.8184L43.2759 13.6689C47.069 16.2103 50.8276 19.0264 52.3793 23.4224C50.4138 20.0911 45.6552 16.7598 42.6897 15.6264C42.6897 15.6264 41.2069 19.2325 35.1379 31.9052C35.1379 31.9052 44.7931 19.8507 45.1379 20.0224C50.7931 22.9759 57.4138 30.6002 53 45.2648C50.1724 52.1335 44.8621 56.4951 28.2069 63.0547C28.3793 62.3335 28.5862 59.1396 28.5517 59.1396L22.5172 67.1416H40.069C42.7931 60.6507 54.3103 52.5113 56.7586 38.7052C57.7241 33.4163 56.4483 17.7901 44.4483 10.8184Z" fill="white"/>
<path d="M22.3103 67.8283L21.7931 68.5152C21.5862 68.7556 21.3448 69.0303 21.0345 69.3737H37.0345L36.931 71.2626H19.8276L17.7931 73.598H36.7241L36.6207 75.4869H17.931C17.931 75.4869 18.8276 85 28.8276 85C37.8276 85 39.3448 75.4869 39.3448 75.4869L39.8621 68.1374C39.8965 68.0343 39.931 67.9313 40 67.7939H22.3103V67.8283ZM20.4483 77.3758L26 83.0081C22.9655 82.5616 20.9655 79.7455 20.4483 77.3758Z" fill="white"/>
<path d="M73.7586 32.0769C74.069 32.386 80.0345 40.0446 82.8276 43.788C83.1034 44.1658 83.4138 44.3375 83.931 44.3375C85.931 44.3031 87.931 44.3375 89.931 44.3375H90.7241C86.8621 39.8385 83.1379 35.5112 79.4138 31.1496C82.9655 27.0284 86.4828 22.9415 90.1379 18.7173C87.7586 18.7173 85.6207 18.7173 83.4483 18.7173C83 18.7173 82.6897 18.8547 82.4138 19.2324C79.7241 22.7355 77.0345 26.2385 74.3448 29.7415C74.2069 29.9476 73.7586 30.5658 73.6897 30.5314V18.7516H67.8621V44.2688H73.7241V32.0769H73.7586ZM83.6897 21.4304C83.8621 21.2244 84.1379 20.9496 84.3103 21.1213C84.5517 21.3274 84.3103 21.6365 84.3103 21.6365C81.6207 24.9678 79.4138 27.784 76.6897 31.184C79.5517 34.7557 82.5517 38.2587 85.1724 41.7617C85.2414 41.8304 85.3103 42.0708 85.1724 42.1739C84.9655 42.3456 84.7241 42.2082 84.5862 42.0708C81.7931 38.6021 81.3793 38.293 75.8276 31.184C76.931 29.7759 82.1379 23.285 83.6897 21.4304ZM70.8621 41.7617C70.8621 41.8648 70.7931 42.0021 70.5172 42.0021C70.3793 42.0021 70.2414 41.8648 70.2414 41.7617C70.2414 41.4183 70.2414 41.4183 70.2414 41.2122C70.2414 37.9496 70.2414 34.687 70.2414 31.4244C70.2414 28.1961 70.2414 25.0021 70.2414 21.7739C70.2414 21.6021 70.2414 21.6021 70.2759 21.293C70.2759 21.19 70.3448 20.9496 70.6207 20.9496C70.931 20.9496 70.931 21.2244 70.931 21.3274C70.931 21.7052 70.931 21.5678 70.931 21.7052C70.8621 28.2648 70.8621 41.5557 70.8621 41.7617Z" fill="white"/>
<path d="M110.655 36.8848C109.931 37.3656 109.31 37.8464 108.655 38.2585C105.966 39.8383 103.138 40.3878 100.241 38.9797C96.9655 37.3656 95.7241 34.5494 95.8621 31.0464C96.069 25.6888 100.828 22.2545 106 23.7656C107.414 24.1777 108.759 24.9676 110.172 25.6201C111.034 24.3838 112.034 23.0444 113 21.6706C108.759 17.2403 99.3793 16.5535 93.8276 21.9454C88.4483 27.1999 88.5862 36.4383 94.1034 41.4868C99.5862 46.5009 108.862 46.0201 113.483 41.0747C112.517 39.6666 111.586 38.2928 110.655 36.8848ZM110.31 41.1434C108.483 42.2767 106.276 42.9292 103.966 42.9292C97.5172 42.9292 92.2759 37.9151 92.2759 31.6989C92.2759 25.5171 97.5172 20.4686 103.966 20.4686C106.034 20.4686 107.966 20.9838 109.655 21.911C109.655 21.911 109.862 22.0141 109.828 22.2545C109.793 22.4262 109.655 22.5292 109.483 22.4949H109.448C107.759 21.6363 106 21.0868 103.931 21.0868C97.7931 21.0868 92.8276 25.8605 92.8276 31.6989C92.8276 37.5716 97.7931 42.311 103.931 42.311C106.276 42.311 108.207 41.7615 110 40.5939C110.034 40.5939 110.069 40.5595 110.138 40.5595C110.31 40.5595 110.448 40.6969 110.448 40.8686C110.448 41.006 110.379 41.109 110.31 41.1434Z" fill="white"/>
<path d="M122.345 32.1111C122.655 32.4202 128.621 40.0787 131.414 43.8222C131.69 44.2 132 44.3717 132.517 44.3717C134.517 44.3373 136.517 44.3717 138.517 44.3717H139.31C135.448 39.8727 131.724 35.5454 128 31.1838C131.552 27.0626 135.069 22.9757 138.724 18.7515C136.345 18.7515 134.207 18.7515 132.034 18.7515C131.586 18.7515 131.276 18.8888 131 19.2666C128.31 22.7696 125.621 26.2727 122.931 29.7757C122.793 29.9818 122.345 30.6 122.276 30.5656V18.7858H116.448V44.303H122.31V32.1111H122.345ZM132.241 21.4646C132.414 21.2585 132.69 20.9838 132.862 21.1555C133.103 21.3616 132.862 21.6707 132.862 21.6707C130.172 25.002 127.966 27.8181 125.241 31.2181C128.103 34.7899 131.103 38.2929 133.724 41.7959C133.793 41.8646 133.862 42.105 133.724 42.208C133.517 42.3797 133.276 42.2424 133.138 42.105C130.345 38.6363 129.931 38.3272 124.379 31.2181C125.483 29.8101 130.724 23.3191 132.241 21.4646ZM119.414 41.7959C119.414 41.8989 119.345 42.0363 119.069 42.0363C118.931 42.0363 118.793 41.8989 118.793 41.7959C118.793 41.4525 118.793 41.4525 118.793 41.2464C118.793 37.9838 118.793 34.7212 118.793 31.4585C118.793 28.2303 118.793 25.0363 118.793 21.808C118.793 21.6363 118.793 21.6363 118.828 21.3272C118.828 21.2242 118.897 20.9838 119.172 20.9838C119.483 20.9838 119.483 21.2585 119.483 21.3616C119.483 21.7393 119.483 21.602 119.483 21.7393C119.448 28.2989 119.448 41.5898 119.414 41.7959Z" fill="white"/>
<path d="M72.7241 57.2503C72.7241 58.1088 72.069 58.624 70.8276 58.624H68.3793V53.8159H70.6897C71.8276 53.8159 72.4828 54.2624 72.4828 55.0523C72.4828 55.5331 72.2414 55.8765 71.8276 56.0826C72.4138 56.2886 72.7241 56.6664 72.7241 57.2503ZM69.7241 55.7392H70.5862C70.9655 55.7392 71.1724 55.5674 71.1724 55.2583C71.1724 54.9493 70.9655 54.7775 70.5862 54.7775H69.7241V55.7392ZM71.3448 57.1472C71.3448 56.8038 71.1379 56.6664 70.7586 56.6664H69.6897V57.6624H70.7586C71.1379 57.628 71.3448 57.4563 71.3448 57.1472Z" fill="white"/>
<path d="M77.3448 57.5594V58.624H73.5172V53.8159H77.2414V54.8462H74.8621V55.6705H76.9655V56.7008H74.8621V57.5594H77.3448Z" fill="white"/>
<path d="M77.8621 56.22C77.8621 54.7432 78.9655 53.7129 80.4828 53.7129C81.3448 53.7129 82.069 54.022 82.5172 54.6058L81.6552 55.3957C81.3448 55.0179 81 54.8462 80.5517 54.8462C79.7586 54.8462 79.2414 55.3957 79.2414 56.22C79.2414 57.0442 79.7931 57.5937 80.5517 57.5937C81 57.5937 81.3793 57.3876 81.6552 57.0442L82.5172 57.8341C82.069 58.4179 81.3448 58.727 80.4828 58.727C78.9655 58.727 77.8621 57.6624 77.8621 56.22Z" fill="white"/>
<path d="M87.4828 56.9068C87.4828 58.0402 86.7241 58.624 85.4828 58.624H83.2414V53.8159H84.5517V55.3614H85.6552C86.7931 55.327 87.4828 55.8422 87.4828 56.9068ZM86.1034 56.9412C86.1034 56.4947 85.8276 56.323 85.3793 56.323H84.5517V57.6624H85.3793C85.8276 57.628 86.1034 57.3876 86.1034 56.9412Z" fill="white"/>
<path d="M90 56.22C90 54.7432 91.1035 53.7129 92.6207 53.7129C93.4828 53.7129 94.2069 54.022 94.6552 54.6058L93.7931 55.3957C93.4828 55.0179 93.1379 54.8462 92.6897 54.8462C91.8965 54.8462 91.3793 55.3957 91.3793 56.22C91.3793 57.0442 91.931 57.5937 92.6897 57.5937C93.1379 57.5937 93.5172 57.3876 93.7931 57.0442L94.6552 57.8341C94.2069 58.4179 93.4828 58.727 92.6207 58.727C91.1035 58.727 90 57.6624 90 56.22Z" fill="white"/>
<path d="M99.7931 53.8159V58.624H98.4483V54.8806H96.6552V58.624H95.3103V53.8159H99.7931Z" fill="white"/>
<path d="M104.69 57.5594V58.624H100.897V53.8159H104.621V54.8462H102.207V55.6705H104.31V56.7008H102.207V57.5594H104.69Z" fill="white"/>
<path d="M107.483 56.7695H106.862V58.624H105.517V53.8159H106.862V55.6705H107.517L108.621 53.8159H110.034L108.552 56.1169L110.069 58.624H108.552L107.483 56.7695Z" fill="white"/>
<path d="M114.345 54.8806H112.897V58.624H111.552V54.8806H110.103V53.8159H114.345V54.8806Z" fill="white"/>
<path d="M119.31 55.6019C119.31 56.7009 118.483 57.3877 117.207 57.3877H116.379V58.6584H115.034V53.8504H117.207C118.517 53.816 119.31 54.5029 119.31 55.6019ZM117.966 55.6019C117.966 55.1554 117.69 54.8807 117.138 54.8807H116.379V56.2887H117.138C117.69 56.2887 117.966 56.014 117.966 55.6019Z" fill="white"/>
<path d="M68.069 65.1496C68.069 63.6729 69.1724 62.6426 70.6897 62.6426C71.5517 62.6426 72.2759 62.9517 72.7241 63.5355L71.8621 64.3254C71.5517 63.9476 71.2069 63.7759 70.7586 63.7759C69.9655 63.7759 69.4483 64.3254 69.4483 65.1496C69.4483 65.9739 70 66.5234 70.7586 66.5234C71.2069 66.5234 71.5862 66.3173 71.8621 65.9739L72.7241 66.7638C72.2759 67.3476 71.5517 67.6567 70.6897 67.6567C69.2069 67.6567 68.069 66.5921 68.069 65.1496Z" fill="white"/>
<path d="M77.7586 66.1799C77.7586 67.0385 77.1034 67.5537 75.8621 67.5537H73.4138V62.7456H75.7241C76.8621 62.7456 77.5172 63.1921 77.5172 63.982C77.5172 64.4628 77.2759 64.8062 76.8621 65.0123C77.4483 65.2183 77.7586 65.5961 77.7586 66.1799ZM74.7586 64.6688H75.6207C76 64.6688 76.2069 64.4971 76.2069 64.188C76.2069 63.8789 76.0345 63.7072 75.6207 63.7072H74.7586V64.6688ZM76.3793 66.0769C76.3793 65.7335 76.1724 65.5961 75.7931 65.5961H74.7241V66.5921H75.7931C76.2069 66.5577 76.3793 66.386 76.3793 66.0769Z" fill="white"/>
<path d="M82.3793 66.489V67.5537H78.5517V62.7456H82.2759V63.7759H79.8966V64.6002H82V65.6305H79.8966V66.489H82.3793Z" fill="white"/>
<path d="M87.069 63.8103H85.5862V67.5537H84.2759V63.8103H82.8276V62.7456H87.069V63.8103Z" fill="white"/>
<path d="M87.3793 65.1496C87.3793 63.7072 88.4828 62.6426 90.0345 62.6426C91.5517 62.6426 92.6897 63.7072 92.6897 65.1496C92.6897 66.5921 91.5862 67.6567 90.0345 67.6567C88.4828 67.6567 87.3793 66.5921 87.3793 65.1496ZM91.3103 65.1496C91.3103 64.3254 90.7586 63.7759 90.0345 63.7759C89.3103 63.7759 88.7586 64.3254 88.7586 65.1496C88.7586 65.9739 89.3103 66.5234 90.0345 66.5234C90.7241 66.5234 91.3103 65.9739 91.3103 65.1496Z" fill="white"/>
<path d="M97.2069 63.8103H95.7586V67.5537H94.4483V63.8103H93V62.7456H97.2069V63.8103Z" fill="white"/>
<path d="M101.724 66.489V67.5537H97.931V62.7456H101.655V63.7759H99.2414V64.6002H101.345V65.6305H99.2414V66.489H101.724Z" fill="white"/>
<path d="M103.724 62.7456L104.586 64.0507L105.414 62.7456H106.966L105.414 65.0466L107.103 67.5537H105.517L104.586 66.1113L103.621 67.5537H102.069L103.759 65.081L102.172 62.7456H103.724Z" fill="white"/>
<path d="M112.138 62.7456V67.5537H110.793V65.6648H108.966V67.5537H107.621V62.7456H108.966V64.5315H110.793V62.7456H112.138Z" fill="white"/>
<path d="M113.241 62.7456H114.552V65.5618L116.517 62.7456H117.759V67.5537H116.448V64.7375L114.483 67.5537H113.241V62.7456Z" fill="white"/>
<path d="M122.862 62.7453V67.5534H121.552V65.9049C121.172 66.0422 120.862 66.0766 120.552 66.0766C119.207 66.0766 118.517 65.4241 118.517 64.1877V62.7109H119.828V64.0503C119.828 64.6685 120.138 64.9776 120.724 64.9776C121.034 64.9776 121.345 64.9089 121.552 64.8059V62.7109H122.862V62.7453Z" fill="white"/>
<path d="M127.759 66.489V67.5537H123.966V62.7456H127.69V63.7759H125.276V64.6002H127.414V65.6305H125.276V66.489H127.759Z" fill="white"/>
<path d="M128.31 65.1496C128.31 63.6729 129.414 62.6426 130.931 62.6426C131.793 62.6426 132.517 62.9517 132.966 63.5355L132.103 64.3254C131.793 63.9476 131.448 63.7759 131 63.7759C130.207 63.7759 129.69 64.3254 129.69 65.1496C129.69 65.9739 130.241 66.5234 131 66.5234C131.448 66.5234 131.828 66.3173 132.103 65.9739L132.966 66.7638C132.517 67.3476 131.793 67.6567 130.931 67.6567C129.414 67.6567 128.31 66.5921 128.31 65.1496Z" fill="white"/>
<path d="M135.586 65.6991H134.966V67.5537H133.621V62.7456H134.966V64.6002H135.621L136.759 62.7456H138.172L136.655 65.0466L138.172 67.5537H136.655L135.586 65.6991Z" fill="white"/>
<path d="M138.345 65.1496C138.345 63.7072 139.448 62.6426 141 62.6426C142.517 62.6426 143.655 63.7072 143.655 65.1496C143.655 66.5921 142.552 67.6567 141 67.6567C139.483 67.6567 138.345 66.5921 138.345 65.1496ZM142.276 65.1496C142.276 64.3254 141.724 63.7759 141 63.7759C140.276 63.7759 139.724 64.3254 139.724 65.1496C139.724 65.9739 140.276 66.5234 141 66.5234C141.724 66.5234 142.276 65.9739 142.276 65.1496Z" fill="white"/>
<path d="M144.448 62.7455H145.759V65.5616L147.724 62.7455H149V67.5536H147.69V64.7374L145.724 67.5536H144.448V62.7455ZM145.31 61.3374H146.207C146.207 61.6465 146.345 61.8182 146.69 61.8182C147.034 61.8182 147.172 61.6465 147.207 61.3374H148.103C148.103 62.0586 147.69 62.4707 146.69 62.4707C145.724 62.4364 145.31 62.0586 145.31 61.3374Z" fill="white"/>
<path d="M72.8621 71.6748V76.4829H71.5172V72.7395H69.7241V76.4829H68.3793V71.6748H72.8621Z" fill="white"/>
<path d="M78.2414 73.4608C78.2414 74.5597 77.4138 75.2466 76.1379 75.2466H75.3103V76.5173H73.9655V71.7092H76.1379C77.4138 71.6749 78.2414 72.3618 78.2414 73.4608ZM76.8621 73.4608C76.8621 73.0143 76.5862 72.7395 76.0345 72.7395H75.2759V74.1476H76.0345C76.5862 74.1476 76.8621 73.8729 76.8621 73.4608Z" fill="white"/>
<path d="M78.6897 74.0788C78.6897 72.6364 79.7931 71.5718 81.3448 71.5718C82.8621 71.5718 84 72.6364 84 74.0788C84 75.5213 82.8966 76.5859 81.3448 76.5859C79.7931 76.5859 78.6897 75.5213 78.6897 74.0788ZM82.5862 74.0788C82.5862 73.2546 82.0345 72.7051 81.3104 72.7051C80.5862 72.7051 80.0345 73.2546 80.0345 74.0788C80.0345 74.9031 80.5862 75.4526 81.3104 75.4526C82.0345 75.4526 82.5862 74.9031 82.5862 74.0788Z" fill="white"/>
<path d="M89.7241 75.3839V77.4445H88.4828V76.4829H85.4483V77.4445H84.2069V75.3839H84.3793C85 75.3839 85.1379 74.4223 85.1724 73.1516L85.2414 71.6748H89.069V75.4182H89.7241V75.3839ZM85.9655 75.3839H87.7586V72.7395H86.3793L86.3448 73.2546C86.3448 74.2162 86.2414 75.0061 85.9655 75.3839Z" fill="white"/>
<path d="M94.9655 71.675L93 75.3841C92.5862 76.174 91.9655 76.5861 91.2414 76.5861C90.9655 76.5861 90.6897 76.5174 90.4138 76.4144L90.7241 75.4184C90.8965 75.4871 91.069 75.4871 91.2069 75.4871C91.4828 75.4871 91.6552 75.3841 91.8276 75.1093L89.9655 71.6406H91.3793L92.4828 73.976L93.6207 71.6406H94.9655V71.675Z" fill="white"/>
<path d="M97.3793 74.6283H96.7931V76.4829H95.4483V71.6748H96.7931V73.5294H97.4138L98.5517 71.6748H99.9655L98.4828 73.9758L100 76.4829H98.4828L97.3793 74.6283Z" fill="white"/>
<path d="M105.621 75.3839V77.4445H104.414V76.4829H100.517V71.6748H101.828V75.3839H103.655V71.6748H104.966V75.3839H105.621Z" fill="white"/>
<path d="M106.345 71.6748H107.655V74.491L109.621 71.6748H110.897V76.4829H109.586V73.6667L107.621 76.4829H106.345V71.6748Z" fill="white"/>
<path d="M112 71.6748H113.31V74.491L115.276 71.6748H116.552V76.4829H115.207V73.6667L113.276 76.4829H112V71.6748Z" fill="white"/>
</g>
<defs>
<clipPath id="clip0_121_151">
<rect width="149" height="85" fill="white"/>
</clipPath>
</defs>
</svg>
