<svg width="126" height="72" viewBox="0 0 126 72" fill="none" xmlns="http://www.w3.org/2000/svg">
<g clip-path="url(#clip0_121_107)">
<path d="M21.5492 36.5965L9.68112 36.1892L29.8306 11.0838C24.2028 9.36742 17.1169 10.8511 12.6554 12.1311C16.5045 8.87288 23.9403 7.73833 30.8512 9.42561L32.6008 6.8947C30.2097 6.28379 27.9644 5.99288 25.4566 5.9056C18.4583 5.73106 11.7223 7.70924 7.20253 12.2765C1.60382 18.0074 -0.874769 25.6874 0.262468 32.8147C2.1287 44.4511 7.96069 46.8365 12.6554 55.7092C12.6846 55.7674 21.5492 36.5965 21.5492 36.5965Z" fill="white"/>
<path d="M27.1771 28.8582C27.1771 28.8582 39.9783 0.407296 40.1241 2.28293e-05C40.0658 -0.0290681 18.3999 27.7527 12.7429 34.88C15.9213 34.9091 20.5578 34.9673 23.7945 34.9964C21.4034 40.8146 9.9144 64.4946 7.34833 70.1382C7.69825 70.1382 36.9748 29.2073 37.1498 28.9746C36.8582 28.9455 29.539 28.8873 27.1771 28.8582ZM20.966 46.7491L28.256 32.7564L18.3708 32.4946L30.2097 16L30.1514 16.2037L21.1993 31.5637L30.7929 31.8255L20.966 46.9527V46.7491Z" fill="white"/>
<path d="M39.9491 42.2111C42.7776 39.1857 43.5066 35.2002 43.5066 35.2002C43.5066 35.2002 41.8153 37.9929 39.5117 39.8547C37.3247 41.6002 34.9919 43.0256 34.9919 43.0256L29.9764 48.4366C29.9764 48.4366 36.3916 45.9929 39.9491 42.2111Z" fill="white"/>
<path d="M37.5871 9.16357L36.5957 11.5781C39.8033 13.7308 42.9817 16.1163 44.2939 19.8399C42.6318 17.0181 38.6077 14.1963 36.1 13.2363C36.1 13.2363 34.8461 16.2908 29.714 27.0254C29.714 27.0254 37.8787 16.8145 38.1703 16.9599C42.9526 19.4618 48.5513 25.9199 44.8188 38.3418C42.4277 44.1599 37.9371 47.8545 23.8528 53.4108C23.9986 52.7999 24.1736 50.0945 24.1444 50.0945L19.0414 56.8727H33.8838C36.1875 51.3745 45.9269 44.4799 47.9972 32.7854C48.8137 28.3054 47.7348 15.069 37.5871 9.16357Z" fill="white"/>
<path d="M18.8665 57.4544L18.4291 58.0362C18.2541 58.2398 18.05 58.4726 17.7875 58.7635H31.3177L31.2303 60.3635H16.7669L15.0465 62.3417H31.0553L30.9678 63.9417H15.1631C15.1631 63.9417 15.9213 71.9998 24.3777 71.9998C31.9884 71.9998 33.2715 63.9417 33.2715 63.9417L33.7089 57.7162C33.738 57.6289 33.7672 57.5417 33.8255 57.4253H18.8665V57.4544ZM17.2918 65.5417L21.9866 70.3126C19.4205 69.9344 17.7292 67.5489 17.2918 65.5417Z" fill="white"/>
<path d="M62.3731 27.1709C62.6355 27.4327 67.6802 33.9199 70.0421 37.0909C70.2754 37.4109 70.5378 37.5563 70.9752 37.5563C72.6665 37.5272 74.3578 37.5563 76.0491 37.5563H76.7197C73.4538 33.7454 70.3046 30.0799 67.1553 26.3854C70.1588 22.8945 73.1331 19.4327 76.224 15.8545C74.212 15.8545 72.4041 15.8545 70.567 15.8545C70.1879 15.8545 69.9255 15.9709 69.6922 16.2909C67.4177 19.2581 65.1433 22.2254 62.8688 25.1927C62.7521 25.3672 62.3731 25.8909 62.3147 25.8618V15.8836H57.3867V37.4981H62.3439V27.1709H62.3731ZM70.7711 18.1527C70.9169 17.9781 71.1502 17.7454 71.296 17.8909C71.5001 18.0654 71.296 18.3272 71.296 18.3272C69.0215 21.149 67.1553 23.5345 64.8517 26.4145C67.2719 29.4399 69.8088 32.4072 72.025 35.3745C72.0833 35.4327 72.1416 35.6363 72.025 35.7236C71.85 35.869 71.6459 35.7527 71.5293 35.6363C69.1673 32.6981 68.8174 32.4363 64.1227 26.4145C65.0558 25.2218 69.4589 19.7236 70.7711 18.1527ZM59.9236 35.3745C59.9236 35.4618 59.8653 35.5781 59.632 35.5781C59.5154 35.5781 59.3988 35.4618 59.3988 35.3745C59.3988 35.0836 59.3988 35.0836 59.3988 34.909C59.3988 32.1454 59.3988 29.3818 59.3988 26.6181C59.3988 23.8836 59.3988 21.1781 59.3988 18.4436C59.3988 18.2981 59.3988 18.2981 59.4279 18.0363C59.4279 17.949 59.4862 17.7454 59.7195 17.7454C59.982 17.7454 59.9819 17.9781 59.9819 18.0654C59.9819 18.3854 59.9819 18.269 59.9819 18.3854C59.9236 23.9418 59.9236 35.1999 59.9236 35.3745Z" fill="white"/>
<path d="M93.5741 31.2438C92.9618 31.6511 92.4369 32.0584 91.8828 32.4075C89.6084 33.7457 87.2173 34.2111 84.7678 33.0184C81.9976 31.6511 80.9479 29.2657 81.0645 26.2984C81.2395 21.7602 85.2635 18.8511 89.6375 20.1311C90.8331 20.4802 91.9703 21.1493 93.1659 21.702C93.8949 20.6548 94.7405 19.5202 95.557 18.3566C91.9703 14.6038 84.0388 14.022 79.3441 18.5893C74.7951 23.0402 74.9118 30.8657 79.5774 35.142C84.2138 39.3893 92.0578 38.982 95.9652 34.7929C95.1488 33.6002 94.3614 32.4366 93.5741 31.2438ZM93.2825 34.8511C91.737 35.8111 89.8708 36.3638 87.9171 36.3638C82.4642 36.3638 78.0319 32.1166 78.0319 26.8511C78.0319 21.6148 82.4642 17.3384 87.9171 17.3384C89.6667 17.3384 91.2996 17.7748 92.7285 18.5602C92.7285 18.5602 92.9034 18.6475 92.8743 18.8511C92.8451 18.9966 92.7285 19.0838 92.5827 19.0548H92.5535C91.1247 18.3275 89.6375 17.862 87.8879 17.862C82.6975 17.862 78.4985 21.9057 78.4985 26.8511C78.4985 31.8257 82.6975 35.8402 87.8879 35.8402C89.8708 35.8402 91.5038 35.3748 93.0201 34.3857C93.0492 34.3857 93.0784 34.3566 93.1367 34.3566C93.2825 34.3566 93.3992 34.4729 93.3992 34.6184C93.3992 34.7348 93.3408 34.822 93.2825 34.8511Z" fill="white"/>
<path d="M103.459 27.2002C103.722 27.462 108.766 33.9492 111.128 37.1202C111.362 37.4402 111.624 37.5856 112.062 37.5856C113.753 37.5565 115.444 37.5856 117.135 37.5856H117.806C114.54 33.7747 111.391 30.1092 108.242 26.4147C111.245 22.9238 114.219 19.462 117.31 15.8838C115.298 15.8838 113.49 15.8838 111.653 15.8838C111.274 15.8838 111.012 16.0002 110.779 16.3202C108.504 19.2874 106.23 22.2547 103.955 25.222C103.838 25.3965 103.459 25.9202 103.401 25.8911V15.9129H98.473V37.5274H103.43V27.2002H103.459ZM111.828 18.182C111.974 18.0074 112.207 17.7747 112.353 17.9202C112.557 18.0947 112.353 18.3565 112.353 18.3565C110.079 21.1783 108.212 23.5638 105.909 26.4438C108.329 29.4692 110.866 32.4365 113.082 35.4038C113.14 35.462 113.199 35.6656 113.082 35.7529C112.907 35.8983 112.703 35.782 112.586 35.6656C110.224 32.7274 109.875 32.4656 105.18 26.4438C106.113 25.2511 110.545 19.7529 111.828 18.182ZM100.981 35.4038C100.981 35.4911 100.922 35.6074 100.689 35.6074C100.573 35.6074 100.456 35.4911 100.456 35.4038C100.456 35.1129 100.456 35.1129 100.456 34.9383C100.456 32.1747 100.456 29.4111 100.456 26.6474C100.456 23.9129 100.456 21.2074 100.456 18.4729C100.456 18.3274 100.456 18.3274 100.485 18.0656C100.485 17.9783 100.543 17.7747 100.777 17.7747C101.039 17.7747 101.039 18.0074 101.039 18.0947C101.039 18.4147 101.039 18.2983 101.039 18.4147C101.01 23.9711 101.01 35.2292 100.981 35.4038Z" fill="white"/>
<path d="M61.4982 48.4945C61.4982 49.2218 60.9442 49.6582 59.8944 49.6582H57.8241V45.5854H59.7778C60.7401 45.5854 61.2941 45.9636 61.2941 46.6327C61.2941 47.04 61.09 47.3309 60.7401 47.5055C61.2358 47.68 61.4982 48 61.4982 48.4945ZM58.9613 47.2145H59.6903C60.0111 47.2145 60.186 47.0691 60.186 46.8073C60.186 46.5454 60.0111 46.4 59.6903 46.4H58.9613V47.2145ZM60.3318 48.4073C60.3318 48.1164 60.1569 48 59.8361 48H58.9322V48.8436H59.8361C60.1569 48.8145 60.3318 48.6691 60.3318 48.4073Z" fill="white"/>
<path d="M65.4057 48.7564V49.6582H62.1689V45.5854H65.3182V46.4582H63.3062V47.1564H65.0849V48.0291H63.3062V48.7564H65.4057Z" fill="white"/>
<path d="M65.8431 47.6217C65.8431 46.3708 66.7763 45.498 68.0593 45.498C68.7883 45.498 69.4006 45.7599 69.7797 46.2544L69.0507 46.9235C68.7883 46.6035 68.4967 46.458 68.1176 46.458C67.4469 46.458 67.0095 46.9235 67.0095 47.6217C67.0095 48.3199 67.4761 48.7853 68.1176 48.7853C68.4967 48.7853 68.8175 48.6108 69.0507 48.3199L69.7797 48.989C69.4006 49.4835 68.7883 49.7453 68.0593 49.7453C66.7763 49.7453 65.8431 48.8435 65.8431 47.6217Z" fill="white"/>
<path d="M73.9788 48.2036C73.9788 49.1636 73.3372 49.6582 72.2875 49.6582H70.3921V45.5854H71.5002V46.8945H72.4333C73.3956 46.8654 73.9788 47.3018 73.9788 48.2036ZM72.8124 48.2327C72.8124 47.8545 72.5791 47.7091 72.2 47.7091H71.5002V48.8436H72.2C72.5791 48.8145 72.8124 48.6109 72.8124 48.2327Z" fill="white"/>
<path d="M76.1074 47.6217C76.1074 46.3708 77.0405 45.498 78.3236 45.498C79.0526 45.498 79.6649 45.7599 80.044 46.2544L79.315 46.9235C79.0526 46.6035 78.761 46.458 78.3819 46.458C77.7112 46.458 77.2738 46.9235 77.2738 47.6217C77.2738 48.3199 77.7404 48.7853 78.3819 48.7853C78.761 48.7853 79.0817 48.6108 79.315 48.3199L80.044 48.989C79.6649 49.4835 79.0526 49.7453 78.3236 49.7453C77.0405 49.7453 76.1074 48.8435 76.1074 47.6217Z" fill="white"/>
<path d="M84.3888 45.5854V49.6582H83.2516V46.4873H81.7353V49.6582H80.598V45.5854H84.3888Z" fill="white"/>
<path d="M88.5295 48.7564V49.6582H85.3219V45.5854H88.4712V46.4582H86.43V47.1564H88.2087V48.0291H86.43V48.7564H88.5295Z" fill="white"/>
<path d="M90.8915 48.0873H90.3666V49.6582H89.2294V45.5854H90.3666V47.1564H90.9206L91.8538 45.5854H93.0493L91.7954 47.5345L93.0785 49.6582H91.7954L90.8915 48.0873Z" fill="white"/>
<path d="M96.6943 46.4873H95.4696V49.6582H94.3324V46.4873H93.1077V45.5854H96.6943V46.4873Z" fill="white"/>
<path d="M100.893 47.098C100.893 48.0289 100.193 48.6107 99.1145 48.6107H98.4147V49.6871H97.2775V45.6143H99.1145C100.223 45.5852 100.893 46.167 100.893 47.098ZM99.7561 47.098C99.7561 46.7198 99.5228 46.4871 99.0562 46.4871H98.4147V47.6798H99.0562C99.5228 47.6798 99.7561 47.447 99.7561 47.098Z" fill="white"/>
<path d="M57.5616 55.1856C57.5616 53.9347 58.4948 53.062 59.7778 53.062C60.5068 53.062 61.1192 53.3238 61.4982 53.8184L60.7692 54.4875C60.5068 54.1675 60.2152 54.022 59.8361 54.022C59.1654 54.022 58.728 54.4875 58.728 55.1856C58.728 55.8838 59.1946 56.3493 59.8361 56.3493C60.2152 56.3493 60.536 56.1747 60.7692 55.8838L61.4982 56.5529C61.1192 57.0475 60.5068 57.3093 59.7778 57.3093C58.5239 57.3093 57.5616 56.4075 57.5616 55.1856Z" fill="white"/>
<path d="M65.7556 56.058C65.7556 56.7853 65.2015 57.2217 64.1518 57.2217H62.0814V53.1489H64.0351C64.9974 53.1489 65.5515 53.5271 65.5515 54.1962C65.5515 54.6035 65.3473 54.8944 64.9974 55.0689C65.4931 55.2435 65.7556 55.5635 65.7556 56.058ZM63.2187 54.778H63.9477C64.2684 54.778 64.4434 54.6326 64.4434 54.3707C64.4434 54.1089 64.2976 53.9635 63.9477 53.9635H63.2187V54.778ZM64.5892 55.9707C64.5892 55.6798 64.4142 55.5635 64.0935 55.5635H63.1895V56.4071H64.0935C64.4434 56.378 64.5892 56.2326 64.5892 55.9707Z" fill="white"/>
<path d="M69.663 56.3198V57.2217H66.4263V53.1489H69.5755V54.0217H67.5635V54.7198H69.3423V55.5926H67.5635V56.3198H69.663Z" fill="white"/>
<path d="M73.6288 54.0507H72.3749V57.2217H71.2668V54.0507H70.0421V53.1489H73.6288V54.0507Z" fill="white"/>
<path d="M73.8912 55.1856C73.8912 53.9638 74.8244 53.062 76.1366 53.062C77.4196 53.062 78.3819 53.9638 78.3819 55.1856C78.3819 56.4075 77.4487 57.3093 76.1366 57.3093C74.8244 57.3093 73.8912 56.4075 73.8912 55.1856ZM77.2155 55.1856C77.2155 54.4875 76.7489 54.022 76.1366 54.022C75.5242 54.022 75.0576 54.4875 75.0576 55.1856C75.0576 55.8838 75.5242 56.3493 76.1366 56.3493C76.7198 56.3493 77.2155 55.8838 77.2155 55.1856Z" fill="white"/>
<path d="M82.2018 54.0507H80.9771V57.2217H79.869V54.0507H78.6443V53.1489H82.2018V54.0507Z" fill="white"/>
<path d="M86.0218 56.3198V57.2217H82.8142V53.1489H85.9635V54.0217H83.9223V54.7198H85.701V55.5926H83.9223V56.3198H86.0218Z" fill="white"/>
<path d="M87.713 53.1489L88.442 54.2544L89.1419 53.1489H90.4541L89.1419 55.098L90.5707 57.2217H89.2293L88.442 55.9998L87.6256 57.2217H86.3134L87.7422 55.1271L86.4008 53.1489H87.713Z" fill="white"/>
<path d="M94.828 53.1489V57.2217H93.6908V55.6217H92.1453V57.2217H91.0081V53.1489H92.1453V54.6617H93.6908V53.1489H94.828Z" fill="white"/>
<path d="M95.7611 53.1489H96.8692V55.5344L98.5313 53.1489H99.5811V57.2217H98.473V54.8362L96.8109 57.2217H95.7611V53.1489Z" fill="white"/>
<path d="M103.897 53.1492V57.2219H102.789V55.8256C102.468 55.9419 102.206 55.971 101.943 55.971C100.806 55.971 100.223 55.4183 100.223 54.371V53.1201H101.331V54.2547C101.331 54.7783 101.593 55.0401 102.089 55.0401C102.351 55.0401 102.614 54.9819 102.789 54.8947V53.1201H103.897V53.1492Z" fill="white"/>
<path d="M108.038 56.3198V57.2217H104.83V53.1489H107.979V54.0217H105.938V54.7198H107.746V55.5926H105.938V56.3198H108.038Z" fill="white"/>
<path d="M108.504 55.1856C108.504 53.9347 109.437 53.062 110.72 53.062C111.449 53.062 112.062 53.3238 112.441 53.8184L111.712 54.4875C111.449 54.1675 111.158 54.022 110.778 54.022C110.108 54.022 109.67 54.4875 109.67 55.1856C109.67 55.8838 110.137 56.3493 110.778 56.3493C111.158 56.3493 111.478 56.1747 111.712 55.8838L112.441 56.5529C112.062 57.0475 111.449 57.3093 110.72 57.3093C109.437 57.3093 108.504 56.4075 108.504 55.1856Z" fill="white"/>
<path d="M114.657 55.6507H114.132V57.2217H112.995V53.1489H114.132V54.7198H114.686L115.648 53.1489H116.844L115.561 55.098L116.844 57.2217H115.561L114.657 55.6507Z" fill="white"/>
<path d="M116.99 55.1856C116.99 53.9638 117.923 53.062 119.235 53.062C120.518 53.062 121.48 53.9638 121.48 55.1856C121.48 56.4075 120.547 57.3093 119.235 57.3093C117.952 57.3093 116.99 56.4075 116.99 55.1856ZM120.314 55.1856C120.314 54.4875 119.847 54.022 119.235 54.022C118.623 54.022 118.156 54.4875 118.156 55.1856C118.156 55.8838 118.623 56.3493 119.235 56.3493C119.847 56.3493 120.314 55.8838 120.314 55.1856Z" fill="white"/>
<path d="M122.151 53.1493H123.259V55.5347L124.921 53.1493H126V57.222H124.892V54.8365L123.23 57.222H122.151V53.1493ZM122.88 51.9565H123.638C123.638 52.2184 123.755 52.3638 124.046 52.3638C124.338 52.3638 124.455 52.2184 124.484 51.9565H125.242C125.242 52.5675 124.892 52.9165 124.046 52.9165C123.23 52.8874 122.88 52.5675 122.88 51.9565Z" fill="white"/>
<path d="M61.6149 60.7129V64.7856H60.4776V61.6147H58.9613V64.7856H57.8241V60.7129H61.6149Z" fill="white"/>
<path d="M66.1638 62.2254C66.1638 63.1563 65.464 63.7381 64.385 63.7381H63.6852V64.8145H62.548V60.7418H64.385C65.464 60.7127 66.1638 61.2945 66.1638 62.2254ZM64.9974 62.2254C64.9974 61.8472 64.7641 61.6145 64.2976 61.6145H63.6561V62.8072H64.2976C64.7641 62.8072 64.9974 62.5745 64.9974 62.2254Z" fill="white"/>
<path d="M66.543 62.7491C66.543 61.5273 67.4761 60.6255 68.7883 60.6255C70.0713 60.6255 71.0336 61.5273 71.0336 62.7491C71.0336 63.9709 70.1005 64.8728 68.7883 64.8728C67.4761 64.8728 66.543 63.9709 66.543 62.7491ZM69.838 62.7491C69.838 62.0509 69.3715 61.5855 68.7591 61.5855C68.1468 61.5855 67.6802 62.0509 67.6802 62.7491C67.6802 63.4473 68.1468 63.9128 68.7591 63.9128C69.3715 63.9128 69.838 63.4473 69.838 62.7491Z" fill="white"/>
<path d="M75.8741 63.8547V65.6002H74.8243V64.7856H72.2583V65.6002H71.2085V63.8547H71.3543C71.8792 63.8547 71.9958 63.0402 72.025 61.9638L72.0833 60.7129H75.32V63.8838H75.8741V63.8547ZM72.6957 63.8547H74.212V61.6147H73.0456L73.0164 62.0511C73.0164 62.8656 72.9289 63.5347 72.6957 63.8547Z" fill="white"/>
<path d="M80.3064 60.7127L78.6443 63.8545C78.2944 64.5236 77.7695 64.8727 77.1572 64.8727C76.9239 64.8727 76.6906 64.8145 76.4573 64.7272L76.7198 63.8836C76.8656 63.9418 77.0114 63.9418 77.128 63.9418C77.3613 63.9418 77.5071 63.8545 77.6529 63.6218L76.0782 60.6836H77.2738L78.2069 62.6618L79.1692 60.6836H80.3064V60.7127Z" fill="white"/>
<path d="M82.3476 63.2147H81.8518V64.7856H80.7146V60.7129H81.8518V62.2838H82.3767L83.339 60.7129H84.5346L83.2807 62.662L84.5637 64.7856H83.2807L82.3476 63.2147Z" fill="white"/>
<path d="M89.3169 63.8547V65.6002H88.2963V64.7856H85.0012V60.7129H86.1093V63.8547H87.6548V60.7129H88.7628V63.8547H89.3169Z" fill="white"/>
<path d="M89.9292 60.7129H91.0373V63.0983L92.6994 60.7129H93.7783V64.7856H92.6702V62.4002L91.0081 64.7856H89.9292V60.7129Z" fill="white"/>
<path d="M94.7114 60.7129H95.8195V63.0983L97.4816 60.7129H98.5605V64.7856H97.4233V62.4002L95.7903 64.7856H94.7114V60.7129Z" fill="white"/>
</g>
<defs>
<clipPath id="clip0_121_107">
<rect width="126" height="72" fill="white"/>
</clipPath>
</defs>
</svg>
