<svg width="136" height="78" viewBox="0 0 136 78" fill="none" xmlns="http://www.w3.org/2000/svg">
<path d="M67.2139 29.2776C67.4965 29.5612 72.9295 36.5891 75.4733 40.0243C75.7245 40.3709 76.0071 40.5285 76.4782 40.5285C78.2997 40.497 80.1211 40.5285 81.9426 40.5285H82.6649C79.1476 36.4 75.7559 32.4291 72.3642 28.4267C75.5989 24.6449 78.8021 20.8946 82.131 17.0182C79.9641 17.0182 78.017 17.0182 76.0386 17.0182C75.6303 17.0182 75.3477 17.1442 75.0964 17.4909C72.6469 20.7055 70.1973 23.92 67.7478 27.1346C67.6222 27.3236 67.2139 27.8909 67.1511 27.8594V17.0497H61.8751V40.4655H67.2139V29.2776ZM76.2584 19.5079C76.4154 19.3188 76.6666 19.0667 76.8237 19.2242C77.0435 19.4133 76.8237 19.697 76.8237 19.697C74.3741 22.7539 72.3642 25.3382 69.8833 28.4582C72.4898 31.7358 75.222 34.9503 77.6088 38.1649C77.6716 38.2279 77.7344 38.4485 77.6088 38.543C77.4204 38.7006 77.2005 38.5746 77.0749 38.4485C74.5311 35.2655 74.1543 34.9818 69.0982 28.4582C70.1031 27.1661 74.8452 21.2097 76.2584 19.5079ZM64.5445 38.1649C64.5445 38.2594 64.4817 38.3855 64.2305 38.3855C64.1049 38.3855 63.9792 38.2594 63.9792 38.1649C63.9792 37.8497 63.9792 37.8497 63.9792 37.6606C63.9792 34.6667 63.9792 31.6727 63.9792 28.6788C63.9792 25.7164 63.9792 22.7855 63.9792 19.823C63.9792 19.6655 63.9792 19.6655 64.0106 19.3818C64.0106 19.2873 64.0735 19.0667 64.3247 19.0667C64.6073 19.0667 64.6073 19.3188 64.6073 19.4133C64.6073 19.76 64.6073 19.6339 64.6073 19.76C64.5759 25.7794 64.5759 37.9758 64.5445 38.1649Z" fill="#3B3735"/>
<path d="M100.817 33.6897C100.157 34.1309 99.5919 34.5721 98.9952 34.9503C96.5457 36.4 93.9705 36.9042 91.3325 35.6121C88.3491 34.1309 87.2185 31.5467 87.3441 28.3321C87.5326 23.4158 91.8664 20.2642 96.5771 21.6509C97.8646 22.0291 99.0894 22.7539 100.377 23.3527C101.162 22.2182 102.073 20.9891 102.952 19.7285C99.0894 15.663 90.5474 15.0327 85.4913 19.9806C80.5922 24.8024 80.7178 33.28 85.7425 37.9127C90.7358 42.5139 99.1836 42.0727 103.392 37.5345C102.512 36.2424 101.665 34.9818 100.817 33.6897ZM100.503 37.5976C98.8382 38.6376 96.8283 39.2364 94.7242 39.2364C88.8516 39.2364 84.0781 34.6351 84.0781 28.9309C84.0781 23.2582 88.8516 18.6254 94.7242 18.6254C96.6085 18.6254 98.3671 19.0982 99.9059 19.9491C99.9059 19.9491 100.094 20.0436 100.063 20.2642C100.032 20.4218 99.9059 20.5164 99.7489 20.4848H99.7175C98.1787 19.697 96.5771 19.1927 94.6928 19.1927C89.1028 19.1927 84.5805 23.5733 84.5805 28.9309C84.5805 34.32 89.1028 38.6691 94.6928 38.6691C96.8283 38.6691 98.5869 38.1648 100.22 37.0933C100.251 37.0933 100.283 37.0618 100.346 37.0618C100.503 37.0618 100.628 37.1879 100.628 37.3455C100.628 37.4715 100.565 37.5661 100.503 37.5976Z" fill="#3B3735"/>
<path d="M111.431 29.3091C111.714 29.5927 117.147 36.6206 119.691 40.0557C119.942 40.4024 120.225 40.56 120.696 40.56C122.517 40.5285 124.339 40.56 126.16 40.56H126.882C123.365 36.4315 119.973 32.4606 116.582 28.4582C119.816 24.6764 123.02 20.926 126.348 17.0497C124.182 17.0497 122.235 17.0497 120.256 17.0497C119.848 17.0497 119.565 17.1757 119.314 17.5224C116.864 20.737 114.415 23.9515 111.965 27.166C111.84 27.3551 111.431 27.9224 111.369 27.8909V17.0497H106.061V40.4654H111.4V29.3091H111.431ZM120.476 19.5079C120.633 19.3188 120.884 19.0667 121.041 19.2242C121.261 19.4133 121.041 19.697 121.041 19.697C118.592 22.7539 116.582 25.3382 114.101 28.4582C116.707 31.7357 119.44 34.9503 121.826 38.1648C121.889 38.2279 121.952 38.4485 121.826 38.543C121.638 38.7006 121.418 38.5745 121.292 38.4485C118.749 35.2654 118.372 34.9818 113.316 28.4582C114.321 27.1976 119.063 21.2412 120.476 19.5079ZM108.793 38.1964C108.793 38.2909 108.731 38.417 108.479 38.417C108.354 38.417 108.228 38.2909 108.228 38.1964C108.228 37.8812 108.228 37.8812 108.228 37.6921C108.228 34.6982 108.228 31.7042 108.228 28.7103C108.228 25.7479 108.228 22.817 108.228 19.8545C108.228 19.697 108.228 19.697 108.26 19.4133C108.26 19.3188 108.322 19.0982 108.574 19.0982C108.856 19.0982 108.856 19.3503 108.856 19.4448C108.856 19.7915 108.856 19.6654 108.856 19.7915C108.825 25.7794 108.793 38.0073 108.793 38.1964Z" fill="#3B3735"/>
<path d="M66.2404 52.3782C66.2404 53.1661 65.6437 53.6388 64.5131 53.6388H62.2834V49.2267H64.3875C65.4238 49.2267 66.0205 49.6364 66.0205 50.3612C66.0205 50.8024 65.8007 51.1176 65.4238 51.3067C65.9577 51.4958 66.2404 51.8424 66.2404 52.3782ZM63.5082 50.9915H64.2933C64.6387 50.9915 64.8272 50.8339 64.8272 50.5503C64.8272 50.2667 64.6387 50.1091 64.2933 50.1091H63.5082V50.9915ZM65.0156 52.2836C65.0156 51.9685 64.8272 51.8424 64.4817 51.8424H63.5082V52.7564H64.4817C64.8272 52.7249 65.0156 52.5673 65.0156 52.2836Z" fill="#3B3735"/>
<path d="M70.4486 52.6618V53.6388H66.9941V49.2267H70.3858V50.1721H68.1875V50.9285H70.1345V51.8424H68.1875V52.6618H70.4486Z" fill="#3B3735"/>
<path d="M70.951 51.4327C70.951 50.0776 71.956 49.1321 73.3378 49.1321C74.1229 49.1321 74.7824 49.4157 75.1906 49.9515L74.4055 50.6764C74.1229 50.3297 73.8089 50.1721 73.4006 50.1721C72.6783 50.1721 72.2072 50.6764 72.2072 51.4327C72.2072 52.1891 72.7097 52.6933 73.4006 52.6933C73.8089 52.6933 74.1543 52.5042 74.4055 52.1891L75.1906 52.9139C74.7824 53.4497 74.1229 53.7333 73.3378 53.7333C71.956 53.7018 70.951 52.7564 70.951 51.4327Z" fill="#3B3735"/>
<path d="M79.6815 52.063C79.6815 53.103 78.9906 53.6388 77.86 53.6388H75.8187V49.2267H77.0121V50.6449H78.0171C79.0848 50.6133 79.6815 51.0861 79.6815 52.063ZM78.4567 52.0946C78.4567 51.6849 78.2055 51.5273 77.7972 51.5273H77.0435V52.7564H77.7972C78.2055 52.7249 78.4567 52.5042 78.4567 52.0946Z" fill="#3B3735"/>
<path d="M81.974 51.4327C81.974 50.0776 82.979 49.1321 84.3608 49.1321C85.1459 49.1321 85.8054 49.4157 86.2136 49.9515L85.4285 50.6764C85.1459 50.3297 84.8318 50.1721 84.4236 50.1721C83.7013 50.1721 83.2302 50.6764 83.2302 51.4327C83.2302 52.1891 83.7327 52.6933 84.4236 52.6933C84.8318 52.6933 85.1773 52.5042 85.4285 52.1891L86.2136 52.9139C85.8054 53.4497 85.1459 53.7333 84.3608 53.7333C82.979 53.7018 81.974 52.7564 81.974 51.4327Z" fill="#3B3735"/>
<path d="M90.9243 49.2267V53.6388H89.6995V50.2036H88.0665V53.6388H86.8417V49.2267H90.9243Z" fill="#3B3735"/>
<path d="M95.3837 52.6618V53.6388H91.8978V49.2267H95.3209V50.1721H93.1226V50.9285H95.0383V51.8424H93.1226V52.6618H95.3837Z" fill="#3B3735"/>
<path d="M97.8961 51.937H97.3622V53.6388H96.1374V49.2267H97.3622V50.9285H97.9275L98.9638 49.2267H100.251L98.901 51.3382L100.283 53.6388H98.901L97.8961 51.937Z" fill="#3B3735"/>
<path d="M104.177 50.2036H102.858V53.6388H101.633V50.2036H100.314V49.2267H104.177V50.2036Z" fill="#3B3735"/>
<path d="M108.699 50.8339C108.699 51.8424 107.945 52.4727 106.784 52.4727H106.03V53.6388H104.805V49.2267H106.784C107.977 49.2267 108.699 49.8255 108.699 50.8339ZM107.474 50.8339C107.474 50.4242 107.223 50.1721 106.721 50.1721H106.03V51.4642H106.721C107.223 51.4958 107.474 51.2436 107.474 50.8339Z" fill="#3B3735"/>
<path d="M62.0322 59.6267C62.0322 58.2715 63.0371 57.326 64.4189 57.326C65.204 57.326 65.8635 57.6097 66.2718 58.1454L65.4867 58.8703C65.204 58.5236 64.89 58.3661 64.4817 58.3661C63.7594 58.3661 63.2884 58.8703 63.2884 59.6267C63.2884 60.383 63.7908 60.8873 64.4817 60.8873C64.89 60.8873 65.2354 60.6982 65.4867 60.383L66.2718 61.1079C65.8635 61.6436 65.204 61.9273 64.4189 61.9273C63.0371 61.8957 62.0322 60.9503 62.0322 59.6267Z" fill="#3B3735"/>
<path d="M70.8568 60.5721C70.8568 61.36 70.2602 61.8327 69.1296 61.8327H66.8999V57.4206H69.004C70.0403 57.4206 70.637 57.8303 70.637 58.5552C70.637 58.9964 70.4172 59.3115 70.0403 59.5006C70.5742 59.6897 70.8568 60.0364 70.8568 60.5721ZM68.1247 59.1855H68.9098C69.2552 59.1855 69.4436 59.0279 69.4436 58.7442C69.4436 58.4606 69.2866 58.303 68.9098 58.303H68.1247V59.1855ZM69.6007 60.4776C69.6007 60.1624 69.4122 60.0364 69.0668 60.0364H68.0932V60.9503H69.0668C69.4436 60.9188 69.6007 60.7612 69.6007 60.4776Z" fill="#3B3735"/>
<path d="M75.065 60.8558V61.8327H71.5791V57.4206H74.9708V58.3661H72.8039V59.1224H74.7196V60.0364H72.8039V60.8558H75.065Z" fill="#3B3735"/>
<path d="M79.3046 58.3976H77.9857V61.8327H76.7923V58.3976H75.4419V57.4206H79.3046V58.3976Z" fill="#3B3735"/>
<path d="M79.6187 59.6267C79.6187 58.303 80.6236 57.326 82.0368 57.326C83.4186 57.326 84.4549 58.303 84.4549 59.6267C84.4549 60.9503 83.45 61.9273 82.0368 61.9273C80.6236 61.8957 79.6187 60.9503 79.6187 59.6267ZM83.1988 59.6267C83.1988 58.8703 82.6963 58.3661 82.0368 58.3661C81.3773 58.3661 80.8748 58.8703 80.8748 59.6267C80.8748 60.383 81.3773 60.8873 82.0368 60.8873C82.6649 60.8873 83.1988 60.383 83.1988 59.6267Z" fill="#3B3735"/>
<path d="M88.5689 58.3976H87.25V61.8327H86.0566V58.3976H84.7062V57.4206H88.5689V58.3976Z" fill="#3B3735"/>
<path d="M92.6829 60.8558V61.8327H89.197V57.4206H92.6201V58.3661H90.4218V59.1224H92.3375V60.0364H90.4218V60.8558H92.6829Z" fill="#3B3735"/>
<path d="M94.5044 57.3891L95.2581 58.5867L96.0432 57.3891H97.4564L96.0432 59.5006L97.582 61.8327H96.1374L95.2581 60.5091L94.4102 61.8327H92.997L94.5358 59.5636L93.0912 57.3891H94.5044Z" fill="#3B3735"/>
<path d="M102.136 57.4206V61.8327H100.942V60.0994H99.2465V61.8327H98.0217V57.4206H99.2465V59.0594H100.942V57.4206H102.136Z" fill="#3B3735"/>
<path d="M103.141 57.4206H104.365V60.0049L106.155 57.4206H107.286V61.8327H106.093V59.2485L104.303 61.8327H103.141V57.4206Z" fill="#3B3735"/>
<path d="M111.934 57.4206V61.8327H110.74V60.32C110.395 60.4461 110.112 60.4776 109.83 60.4776C108.605 60.4776 107.977 59.8788 107.977 58.7442V57.3891H109.17V58.6182C109.17 59.1855 109.453 59.4691 109.987 59.4691C110.269 59.4691 110.552 59.4061 110.74 59.3115V57.3891H111.934V57.4206Z" fill="#3B3735"/>
<path d="M116.393 60.8558V61.8327H112.939V57.4206H116.33V58.3661H114.132V59.1224H116.048V60.0364H114.132V60.8558H116.393Z" fill="#3B3735"/>
<path d="M116.896 59.6267C116.896 58.2715 117.901 57.326 119.282 57.326C120.068 57.326 120.727 57.6097 121.135 58.1454L120.35 58.8703C120.068 58.5236 119.754 58.3661 119.345 58.3661C118.623 58.3661 118.152 58.8703 118.152 59.6267C118.152 60.383 118.654 60.8873 119.345 60.8873C119.754 60.8873 120.099 60.6982 120.35 60.383L121.135 61.1079C120.727 61.6436 120.068 61.9273 119.282 61.9273C117.901 61.8957 116.896 60.9503 116.896 59.6267Z" fill="#3B3735"/>
<path d="M123.522 60.1309H122.957V61.8327H121.732V57.4206H122.957V59.1224H123.553L124.558 57.4206H125.846L124.496 59.5321L125.877 61.8327H124.496L123.522 60.1309Z" fill="#3B3735"/>
<path d="M126.034 59.6267C126.034 58.303 127.039 57.326 128.453 57.326C129.834 57.326 130.871 58.303 130.871 59.6267C130.871 60.9503 129.866 61.9273 128.453 61.9273C127.071 61.8957 126.034 60.9503 126.034 59.6267ZM129.615 59.6267C129.615 58.8703 129.112 58.3661 128.453 58.3661C127.793 58.3661 127.291 58.8703 127.291 59.6267C127.291 60.383 127.793 60.8873 128.453 60.8873C129.112 60.8873 129.615 60.383 129.615 59.6267Z" fill="#3B3735"/>
<path d="M131.562 57.4206H132.755V60.0048L134.545 57.4206H135.707V61.8327H134.514V59.2485L132.724 61.8327H131.562V57.4206ZM132.378 56.1285H133.195C133.195 56.4121 133.32 56.5697 133.634 56.5697C133.948 56.5697 134.074 56.4121 134.105 56.1285H134.922C134.922 56.7903 134.545 57.1685 133.634 57.1685C132.755 57.137 132.378 56.7903 132.378 56.1285Z" fill="#3B3735"/>
<path d="M66.366 65.6145V70.0267H65.1726V66.5915H63.5082V70.0267H62.3148V65.6145H66.366Z" fill="#3B3735"/>
<path d="M71.2651 67.2218C71.2651 68.2303 70.5114 68.8606 69.3494 68.8606H68.5957V70.0267H67.3709V65.6145H69.3494C70.5428 65.6145 71.2651 66.2133 71.2651 67.2218ZM70.0403 67.2218C70.0403 66.8121 69.7891 66.56 69.2866 66.56H68.5957V67.8521H69.2866C69.7891 67.8836 70.0403 67.6315 70.0403 67.2218Z" fill="#3B3735"/>
<path d="M71.6733 67.8206C71.6733 66.497 72.6783 65.52 74.0915 65.52C75.4733 65.52 76.5096 66.497 76.5096 67.8206C76.5096 69.1443 75.5047 70.1212 74.0915 70.1212C72.7097 70.0897 71.6733 69.1443 71.6733 67.8206ZM75.2535 67.8206C75.2535 67.0643 74.751 66.56 74.0915 66.56C73.432 66.56 72.9295 67.0643 72.9295 67.8206C72.9295 68.577 73.432 69.0812 74.0915 69.0812C74.751 69.0812 75.2535 68.577 75.2535 67.8206Z" fill="#3B3735"/>
<path d="M81.7542 69.0182V70.9091H80.6236V70.0267H77.86V70.9091H76.7294V69.0182H76.8865C77.4517 69.0182 77.5774 68.1358 77.6088 66.9697L77.6716 65.6145H81.1575V69.0182H81.7542ZM78.3311 69.0182H79.9641V66.5915H78.7079L78.6765 67.0642C78.6765 67.9467 78.5823 68.64 78.3311 69.0182Z" fill="#3B3735"/>
<path d="M86.5277 65.6146L84.7376 69.0182C84.3608 69.743 83.7955 70.1212 83.136 70.1212C82.8848 70.1212 82.6335 70.0582 82.3823 69.9636L82.6649 69.0497C82.8219 69.1127 82.979 69.1127 83.1046 69.1127C83.3558 69.1127 83.5128 69.0182 83.6699 68.7661L81.974 65.583H83.2616L84.2665 67.7261L85.3029 65.583H86.5277V65.6146Z" fill="#3B3735"/>
<path d="M88.726 68.3249H88.1921V70.0267H86.9673V65.6145H88.1921V67.3164H88.7574L89.7937 65.6145H91.0813L89.7309 67.7261L91.1127 70.0267H89.7309L88.726 68.3249Z" fill="#3B3735"/>
<path d="M96.2316 69.0182V70.9091H95.1011V70.0267H91.5524V65.6145H92.7771V69.0182H94.4416V65.6145H95.635V69.0182H96.2316Z" fill="#3B3735"/>
<path d="M96.8911 65.6145H98.0845V68.1988L99.8745 65.6145H101.037V70.0267H99.8117V67.4424L98.0531 70.0267H96.8911V65.6145Z" fill="#3B3735"/>
<path d="M102.041 65.6145H103.235V68.1988L105.025 65.6145H106.187V70.0267H104.962V67.4424L103.203 70.0267H102.041V65.6145Z" fill="#3B3735"/>
<path d="M7.76528 13.3309C1.73562 19.5079 -0.933755 27.8279 0.291019 35.5491C2.3009 48.1552 8.58179 50.7394 13.6379 60.3515C13.6693 60.4146 23.2163 39.6776 23.2163 39.6776L10.4661 39.2364L32.1665 12.0388C26.1055 10.1794 18.4742 11.7867 13.6693 13.1733C17.8147 9.64364 25.8228 8.41455 33.2657 10.2424L35.15 7.50061C32.5748 6.83879 30.1567 6.52364 27.4559 6.42909C27.1418 6.42909 26.8278 6.42909 26.5137 6.42909C19.2593 6.42909 12.4445 8.60364 7.76528 13.3309Z" fill="url(#paint0_linear_116_103)"/>
<path d="M43.2523 0C43.1895 0 19.856 30.0655 13.7635 37.7867C17.1866 37.8182 22.1799 37.8812 25.6658 37.9127C23.0907 44.2158 10.7173 69.8691 7.9537 75.983C8.33056 75.983 39.8606 31.6412 40.0491 31.3891C39.7036 31.3576 31.8525 31.2945 29.3087 31.2945C29.2773 31.263 43.0639 0.441212 43.2523 0ZM33.1087 34.4776L22.5254 50.8655L22.5882 50.6449L30.4393 35.4861L19.7932 35.2024L32.5434 17.3333L32.4806 17.5539L22.8394 34.1939L33.1087 34.4776Z" fill="url(#paint1_linear_116_103)"/>
<path d="M42.5614 43.1758C40.2061 45.0667 37.6937 46.6109 37.6937 46.6109L32.2921 52.4727C32.2921 52.4727 39.1697 49.8255 43.0325 45.7285C46.0787 42.4509 46.8638 38.1333 46.8638 38.1333C46.8638 38.1333 45.0424 41.1273 42.5614 43.1758Z" fill="url(#paint2_linear_116_103)"/>
<path d="M39.421 12.5746C42.8754 14.9067 46.2985 17.4909 47.7117 21.5249C45.9217 18.4679 41.5879 15.4109 38.8871 14.3709C38.8871 14.3709 37.5367 17.68 32.0095 29.3091C32.0095 29.3091 40.8027 18.2473 41.1168 18.4049C46.2671 21.1152 52.2968 28.1115 48.277 41.5685C45.7018 47.8715 40.8656 51.874 25.6972 57.8933C25.8542 57.2315 26.0427 54.3006 26.0113 54.3006L20.5155 61.6437H36.5003C38.9813 55.6873 49.4704 48.2182 51.7001 35.5491C52.548 30.6643 51.4175 16.3564 40.4887 9.92728L39.421 12.5746Z" fill="url(#paint3_linear_116_103)"/>
<path d="M18.6312 71.0036L23.6873 76.1721C20.9237 75.7624 19.1023 73.1467 18.6312 71.0036ZM20.327 62.2424L19.856 62.8727C19.6676 63.0933 19.4477 63.3455 19.1651 63.6606H33.7368L33.6425 65.3939H18.0659L16.2131 67.537H33.4541L33.3599 69.2703H16.3387C16.3387 69.2703 17.1552 78 26.2625 78C34.4591 78 35.8408 69.2703 35.8408 69.2703L36.3119 62.5261C36.3433 62.4315 36.3747 62.337 36.4375 62.2109H20.327V62.2424Z" fill="#3B3735"/>
<defs>
<linearGradient id="paint0_linear_116_103" x1="17.575" y1="6.42909" x2="17.575" y2="60.3517" gradientUnits="userSpaceOnUse">
<stop stop-color="#FFE20F"/>
<stop offset="1" stop-color="#FFB81D"/>
</linearGradient>
<linearGradient id="paint1_linear_116_103" x1="25.603" y1="0" x2="25.603" y2="75.983" gradientUnits="userSpaceOnUse">
<stop stop-color="#FFE20F"/>
<stop offset="1" stop-color="#FFB81D"/>
</linearGradient>
<linearGradient id="paint2_linear_116_103" x1="39.578" y1="38.1333" x2="39.578" y2="52.4727" gradientUnits="userSpaceOnUse">
<stop stop-color="#FFE20F"/>
<stop offset="1" stop-color="#FFB81D"/>
</linearGradient>
<linearGradient id="paint3_linear_116_103" x1="36.2193" y1="9.92728" x2="36.2193" y2="61.6437" gradientUnits="userSpaceOnUse">
<stop stop-color="#FFE20F"/>
<stop offset="1" stop-color="#FFB81D"/>
</linearGradient>
</defs>
</svg>
