<svg width="31" height="41" viewBox="0 0 31 41" fill="none" xmlns="http://www.w3.org/2000/svg">
<path d="M15.5 0C7.01973 0 0.125 6.89473 0.125 15.375C0.125 26.7141 14.3068 40.1992 14.9154 40.7678C15.0836 40.9199 15.2918 41 15.5 41C15.7082 41 15.9244 40.9199 16.0846 40.7678C16.6932 40.1992 30.875 26.7141 30.875 15.375C30.875 6.89473 23.9803 0 15.5 0ZM15.5 23.9193C10.7914 23.9193 6.95566 20.0836 6.95566 15.375C6.95566 10.6664 10.7914 6.83066 15.5 6.83066C20.2086 6.83066 24.0443 10.6664 24.0443 15.375C24.0443 20.0836 20.2086 23.9193 15.5 23.9193Z" fill="#FFB81D"/>
</svg>
