<svg width="19" height="16" viewBox="0 0 19 16" fill="none" xmlns="http://www.w3.org/2000/svg">
<g clip-path="url(#clip0_4_119)">
<path d="M17.6195 0.178189L0.743902 6.6298C0.743902 6.6298 -0.056695 6.89401 0.00634416 7.38556C0.0693833 7.87711 0.718687 8.10445 0.718687 8.10445L4.96122 9.49923L4.96753 9.50538V9.49923L15.1547 3.18894C15.1547 3.18894 15.7409 2.83871 15.722 3.18894C15.722 3.18894 15.8292 3.25039 15.514 3.53917C15.1988 3.82796 7.508 10.5622 7.508 10.5622L7.4954 10.6912L14.4171 15.8648C15.5707 16.3564 15.9931 15.3303 15.9931 15.3303L19 0.565286C19 -0.417817 17.6132 0.178189 17.6195 0.178189Z" fill="#1E2738"/>
<path d="M10.143 12.6697L7.40082 15.1091C7.40082 15.1091 7.18649 15.2688 6.95325 15.1705L7.47647 10.6421" fill="#1E2738"/>
</g>
<defs>
<clipPath id="clip0_4_119">
<rect width="19" height="16" fill="white"/>
</clipPath>
</defs>
</svg>
