<svg width="35" height="55" viewBox="0 0 35 55" fill="none" xmlns="http://www.w3.org/2000/svg">
<g clip-path="url(#clip0_123_982)">
<path d="M35 1.26494V53.7351C35 54.0672 34.8721 54.3711 34.6517 54.5972C34.6375 54.6113 34.6233 54.6255 34.6091 54.6396C34.5948 54.6537 34.5806 54.6679 34.5664 54.682C34.5451 54.6961 34.5238 54.7173 34.5024 54.7315C34.4882 54.7456 34.474 54.7527 34.4598 54.7668C34.4456 54.7739 34.4314 54.7809 34.4242 54.7951C34.41 54.8021 34.4029 54.8092 34.3887 54.8163C34.3745 54.8233 34.3603 54.8304 34.3461 54.8375C34.3318 54.8445 34.3176 54.8516 34.2963 54.8657C34.2963 54.8657 34.2892 54.8657 34.2892 54.8728C34.275 54.8799 34.2537 54.8869 34.2323 54.9011C34.211 54.9081 34.1897 54.9152 34.1755 54.9223C34.1612 54.9293 34.147 54.9364 34.1328 54.9364C34.1044 54.9435 34.0831 54.9505 34.0546 54.9576C34.0404 54.9576 34.0333 54.9647 34.0191 54.9647C34.0049 54.9647 33.9978 54.9717 33.9835 54.9717C33.9622 54.9788 33.948 54.9788 33.9267 54.9788C33.9125 54.9788 33.9054 54.9788 33.8911 54.9859C33.8769 54.9859 33.8698 54.9859 33.8556 54.9929C33.813 54.9929 33.7703 55 33.7277 55C33.7277 55 1.22969 55 1.20837 55C1.12307 54.9929 1.04488 54.9859 0.966694 54.9647C0.952478 54.9576 0.931153 54.9576 0.916937 54.9505C0.845857 54.9293 0.781885 54.9081 0.717912 54.8728C0.696588 54.8587 0.668156 54.8516 0.646832 54.8375C0.604184 54.8163 0.561535 54.788 0.525995 54.7597C0.206133 54.5336 -0.00710809 54.1591 -0.00710809 53.7351V1.26494C-0.00710809 0.840935 0.199025 0.466401 0.525995 0.240267C0.739236 0.0848002 0.995126 0 1.27234 0H33.7277C34.0902 0 34.4242 0.155467 34.6588 0.395734C34.8721 0.628935 35 0.932802 35 1.26494Z" fill="#383838"/>
<path opacity="0.6" d="M35 1.26497V53.7351C35 54.0672 34.8721 54.3711 34.6517 54.5972L30.9413 51.0074L30.067 51.0356V3.96444L30.9413 3.99271L34.6517 0.402832C34.8721 0.628966 35 0.932833 35 1.26497Z" fill="black"/>
<path opacity="0.2" d="M34.6588 0.395734L30.9484 3.98561L3.1844 3.18001L0.533103 0.240267C0.739236 0.0848002 0.995126 0 1.27234 0H33.7277C34.0973 0 34.4242 0.155467 34.6588 0.395734Z" fill="white"/>
<path opacity="0.4" d="M34.6588 54.5972C34.6446 54.6113 34.6304 54.6255 34.6162 54.6396C34.6019 54.6537 34.5877 54.6679 34.5735 54.682C34.5522 54.6961 34.5309 54.7173 34.5095 54.7315C34.4953 54.7456 34.4811 54.7527 34.4669 54.7668C34.4527 54.7739 34.4385 54.7809 34.4314 54.7951C34.4171 54.8021 34.41 54.8092 34.3958 54.8163C34.3816 54.8233 34.3674 54.8304 34.3532 54.8375C34.3389 54.8445 34.3247 54.8516 34.3034 54.8657C34.3034 54.8657 34.2963 54.8657 34.2963 54.8728C34.2821 54.8799 34.2608 54.8869 34.2394 54.9011C34.2181 54.9081 34.1968 54.9152 34.1826 54.9223C34.1684 54.9293 34.1541 54.9364 34.1399 54.9364C34.1115 54.9435 34.0902 54.9505 34.0617 54.9576C34.0475 54.9576 34.0404 54.9647 34.0262 54.9647C34.012 54.9647 34.0049 54.9717 33.9907 54.9717C33.9693 54.9788 33.9551 54.9788 33.9338 54.9788C33.9196 54.9788 33.9125 54.9788 33.8982 54.9859C33.884 54.9859 33.8769 54.9859 33.8627 54.9929C33.8201 54.9929 33.7774 55 33.7348 55C33.7348 55 1.2368 55 1.21548 55C1.13018 54.9929 1.05199 54.9859 0.973802 54.9647C0.959586 54.9576 0.938261 54.9576 0.924045 54.9505C0.852965 54.9293 0.788993 54.9081 0.72502 54.8728C0.703696 54.8587 0.675264 54.8516 0.65394 54.8375C0.611292 54.8163 0.568643 54.788 0.533103 54.7597L3.1844 51.82L30.9555 51.0073L34.6588 54.5972Z" fill="black"/>
<path d="M32.0431 2.9397H2.95695V52.0532H32.0431V2.9397Z" fill="#323232"/>
<g opacity="0.3">
<path d="M32.0431 2.9397V3.0457H3.06357V52.0532H2.95695V2.9397H32.0431Z" fill="white"/>
</g>
<g opacity="0.3">
<path d="M32.0431 2.9397V52.0532H2.95695V51.9542H31.9435V2.9397H32.0431Z" fill="black"/>
</g>
<path d="M28.8231 6.32471H6.17689V48.6753H28.8231V6.32471Z" fill="#060407"/>
<path opacity="0.5" d="M28.1194 47.8556L33.0595 44.6827L28.2331 27.3127H26.0794L26.8968 47.1419L28.1194 47.8556Z" fill="black"/>
<path d="M28.2331 7.49072V47.5093C28.2331 47.8274 27.9701 48.0888 27.6503 48.0888H7.35682C7.03696 48.0888 6.77396 47.8274 6.77396 47.5093V7.49072C6.77396 7.17272 7.03696 6.91125 7.35682 6.91125H27.6503C27.9701 6.91125 28.2331 7.17272 28.2331 7.49072Z" fill="#FFDC04"/>
<g opacity="0.3">
<path d="M28.2118 7.34232C28.1621 7.32819 28.1194 7.32112 28.0697 7.32112H7.76909C7.44923 7.32112 7.18623 7.58259 7.18623 7.90059V47.9192C7.18623 47.9687 7.19334 48.0182 7.20756 48.0606C6.95877 47.997 6.77396 47.7708 6.77396 47.5023V7.49072C6.77396 7.17272 7.03696 6.91125 7.35682 6.91125H27.6503C27.9204 6.91125 28.1478 7.09499 28.2118 7.34232Z" fill="white"/>
</g>
<g opacity="0.3">
<path d="M28.2331 7.49064V47.5093C28.2331 47.8273 27.9701 48.0887 27.6503 48.0887H7.35682C7.08672 48.0887 6.85926 47.905 6.79529 47.6577C6.84504 47.6718 6.88769 47.6789 6.93745 47.6789H27.2309C27.5508 47.6789 27.8138 47.4174 27.8138 47.0994V7.07371C27.8138 7.02424 27.8067 6.97477 27.7924 6.93237C28.0483 6.99597 28.2331 7.22211 28.2331 7.49064Z" fill="black"/>
</g>
<path opacity="0.3" d="M28.2331 27.3127H6.77396V42.0044H28.2331V27.3127Z" fill="white"/>
<path opacity="0.3" d="M28.2331 41.4885H6.77396V42.0044H28.2331V41.4885Z" fill="white"/>
<path opacity="0.3" d="M28.2331 42.0044V47.5093C28.2331 47.8273 27.9701 48.0888 27.6503 48.0888H7.35682C7.03696 48.0888 6.77396 47.8273 6.77396 47.5093V42.0044H28.2331Z" fill="black"/>
<path d="M18.0544 12.5717H16.9527V20.1754H18.0544V12.5717Z" fill="white"/>
<path d="M17.5 32.1534C15.6306 32.1534 14.1166 33.27 14.1166 34.655C14.1166 36.0401 15.6306 37.1567 17.5 37.1567C19.3694 37.1567 20.8834 36.0401 20.8834 34.655C20.8834 33.27 19.3694 32.1534 17.5 32.1534ZM17.5 36.5207C16.1139 36.5207 14.9838 35.6868 14.9838 34.6621C14.9838 33.6374 16.1139 32.8036 17.5 32.8036C18.8861 32.8036 20.0162 33.6374 20.0162 34.6621C20.0162 35.6868 18.8932 36.5207 17.5 36.5207Z" fill="white"/>
</g>
<g clip-path="url(#clip1_123_982)">
<path d="M33.9998 1.26494V53.7351C33.9998 54.0672 33.8756 54.3711 33.6615 54.5972C33.6477 54.6113 33.6339 54.6255 33.6201 54.6396C33.6063 54.6537 33.5925 54.6679 33.5786 54.682C33.5579 54.6961 33.5372 54.7173 33.5165 54.7315C33.5027 54.7456 33.4889 54.7527 33.4751 54.7668C33.4613 54.7739 33.4474 54.7809 33.4405 54.7951C33.4267 54.8021 33.4198 54.8092 33.406 54.8163C33.3922 54.8233 33.3784 54.8304 33.3646 54.8375C33.3508 54.8445 33.337 54.8516 33.3163 54.8657C33.3163 54.8657 33.3094 54.8657 33.3094 54.8728C33.2955 54.8799 33.2748 54.8869 33.2541 54.9011C33.2334 54.9081 33.2127 54.9152 33.1989 54.9223C33.1851 54.9293 33.1713 54.9364 33.1574 54.9364C33.1298 54.9435 33.1091 54.9505 33.0815 54.9576C33.0677 54.9576 33.0608 54.9647 33.047 54.9647C33.0332 54.9647 33.0262 54.9717 33.0124 54.9717C32.9917 54.9788 32.9779 54.9788 32.9572 54.9788C32.9434 54.9788 32.9365 54.9788 32.9227 54.9859C32.9089 54.9859 32.902 54.9859 32.8881 54.9929C32.8467 54.9929 32.8053 55 32.7639 55C32.7639 55 1.1944 55 1.17369 55C1.09083 54.9929 1.01488 54.9859 0.938921 54.9647C0.925111 54.9576 0.904396 54.9576 0.890586 54.9505C0.821536 54.9293 0.759392 54.9081 0.697247 54.8728C0.676532 54.8587 0.648912 54.8516 0.628198 54.8375C0.586768 54.8163 0.545338 54.788 0.510813 54.7597C0.20009 54.5336 -0.00705838 54.1591 -0.00705838 53.7351V1.26494C-0.00705838 0.840935 0.193185 0.466401 0.510813 0.240267C0.717962 0.0848002 0.96654 0 1.23583 0H32.7639C33.116 0 33.4405 0.155467 33.6684 0.395734C33.8756 0.628935 33.9998 0.932802 33.9998 1.26494Z" fill="#383838"/>
<path opacity="0.6" d="M34 1.26497V53.7351C34 54.0672 33.8757 54.3711 33.6617 54.5972L30.0573 51.0074L29.208 51.0356V3.96444L30.0573 3.99271L33.6617 0.402832C33.8757 0.628966 34 0.932833 34 1.26497Z" fill="black"/>
<path opacity="0.2" d="M33.6686 0.395734L30.0642 3.98561L3.09342 3.18001L0.517872 0.240267C0.718115 0.0848002 0.966694 0 1.23599 0H32.764C33.1231 0 33.4407 0.155467 33.6686 0.395734Z" fill="white"/>
<path opacity="0.4" d="M33.6686 54.5972C33.6548 54.6113 33.6409 54.6255 33.6271 54.6396C33.6133 54.6537 33.5995 54.6679 33.5857 54.682C33.565 54.6961 33.5443 54.7173 33.5236 54.7315C33.5097 54.7456 33.4959 54.7527 33.4821 54.7668C33.4683 54.7739 33.4545 54.7809 33.4476 54.7951C33.4338 54.8021 33.4269 54.8092 33.4131 54.8163C33.3993 54.8233 33.3855 54.8304 33.3716 54.8375C33.3578 54.8445 33.344 54.8516 33.3233 54.8657C33.3233 54.8657 33.3164 54.8657 33.3164 54.8728C33.3026 54.8799 33.2819 54.8869 33.2612 54.9011C33.2405 54.9081 33.2197 54.9152 33.2059 54.9223C33.1921 54.9293 33.1783 54.9364 33.1645 54.9364C33.1369 54.9435 33.1162 54.9505 33.0885 54.9576C33.0747 54.9576 33.0678 54.9647 33.054 54.9647C33.0402 54.9647 33.0333 54.9717 33.0195 54.9717C32.9988 54.9788 32.985 54.9788 32.9643 54.9788C32.9504 54.9788 32.9435 54.9788 32.9297 54.9859C32.9159 54.9859 32.909 54.9859 32.8952 54.9929C32.8538 54.9929 32.8123 55 32.7709 55C32.7709 55 1.20146 55 1.18075 55C1.09789 54.9929 1.02193 54.9859 0.945979 54.9647C0.932169 54.9576 0.911454 54.9576 0.897644 54.9505C0.828595 54.9293 0.76645 54.9081 0.704305 54.8728C0.683591 54.8587 0.655971 54.8516 0.635256 54.8375C0.593826 54.8163 0.552396 54.788 0.517872 54.7597L3.09342 51.82L30.0711 51.0073L33.6686 54.5972Z" fill="black"/>
<path d="M31.1275 2.9397H2.87246V52.0532H31.1275V2.9397Z" fill="#323232"/>
<g opacity="0.3">
<path d="M31.1275 2.9397V3.0457H2.97604V52.0532H2.87246V2.9397H31.1275Z" fill="white"/>
</g>
<g opacity="0.3">
<path d="M31.1275 2.9397V52.0532H2.87246V51.9542H31.0309V2.9397H31.1275Z" fill="black"/>
</g>
<path d="M27.9996 6.32471H6.00041V48.6753H27.9996V6.32471Z" fill="#060407"/>
<path opacity="0.5" d="M27.316 7.15149L32.1149 14.1404L27.4265 27.6873L25.3343 31.687L26.1284 7.99949L27.316 7.15149Z" fill="black"/>
<path d="M27.4265 7.49072V47.5093C27.4265 47.8274 27.171 48.0888 26.8603 48.0888H7.14663C6.83591 48.0888 6.58042 47.8274 6.58042 47.5093V7.49072C6.58042 7.17272 6.83591 6.91125 7.14663 6.91125H26.8603C27.171 6.91125 27.4265 7.17272 27.4265 7.49072Z" fill="#FFDC04"/>
<g opacity="0.3">
<path d="M27.4058 7.34232C27.3574 7.32819 27.316 7.32112 27.2677 7.32112H7.54712C7.23639 7.32112 6.98091 7.58259 6.98091 7.90059V47.9192C6.98091 47.9687 6.98782 48.0182 7.00163 48.0606C6.75995 47.997 6.58042 47.7708 6.58042 47.5023V7.49072C6.58042 7.17272 6.83591 6.91125 7.14663 6.91125H26.8603C27.1227 6.91125 27.3436 7.09499 27.4058 7.34232Z" fill="white"/>
</g>
<g opacity="0.3">
<path d="M27.4265 7.49064V47.5093C27.4265 47.8273 27.171 48.0887 26.8603 48.0887H7.14663C6.88424 48.0887 6.66328 47.905 6.60114 47.6577C6.64947 47.6718 6.6909 47.6789 6.73924 47.6789H26.4529C26.7636 47.6789 27.0191 47.4174 27.0191 47.0994V7.07371C27.0191 7.02424 27.0122 6.97477 26.9984 6.93237C27.247 6.99597 27.4265 7.22211 27.4265 7.49064Z" fill="black"/>
</g>
<path opacity="0.2" d="M27.4265 12.9956H6.58042V27.6872H27.4265V12.9956Z" fill="black"/>
<path opacity="0.5" d="M27.4265 12.9956H6.58042V13.5115H27.4265V12.9956Z" fill="white"/>
<path opacity="0.4" d="M6.58042 12.9603V7.45532C6.58042 7.13732 6.83591 6.87585 7.14663 6.87585H26.8603C27.171 6.87585 27.4265 7.13732 27.4265 7.45532V12.9603H6.58042Z" fill="white"/>
<path opacity="0.8" d="M17.5386 17.3982H16.4683V23.2918H17.5386V17.3982Z" fill="white"/>
<path d="M17 33.8282C15.184 33.8282 13.7132 35.3334 13.7132 37.192C13.7132 39.0505 15.184 40.5557 17 40.5557C18.816 40.5557 20.2868 39.0505 20.2868 37.192C20.2868 35.3334 18.816 33.8282 17 33.8282ZM17 39.6865C15.6535 39.6865 14.5556 38.5629 14.5556 37.1849C14.5556 35.8069 15.6535 34.6833 17 34.6833C18.3465 34.6833 19.4444 35.7999 19.4444 37.1849C19.4444 38.57 18.3534 39.6865 17 39.6865Z" fill="white"/>
</g>
<defs>
<clipPath id="clip0_123_982">
<rect width="35" height="55" fill="white"/>
</clipPath>
<clipPath id="clip1_123_982">
<rect width="34" height="55" fill="white"/>
</clipPath>
</defs>
</svg>
