<svg width="21" height="22" viewBox="0 0 21 22" fill="none" xmlns="http://www.w3.org/2000/svg">
<g clip-path="url(#clip0_4_112)">
<path d="M19.236 12.3243C18.69 16.7854 15.393 17.0706 14.784 17.2743C14.532 17.3558 12.117 17.9465 9.114 17.7632L5.838 21.2873V17.2336H5.817C1.428 16.0113 1.575 11.4688 1.617 9.08542C1.659 6.70208 2.121 4.74653 3.465 3.42245C5.88 1.26319 10.836 1.58912 10.836 1.58912C15.036 1.60949 17.031 2.85208 17.493 3.27986C19.026 4.58356 19.824 7.7206 19.236 12.3243ZM18.627 2.13912C18.081 1.65023 15.855 0.0409716 10.899 0.0206012C10.899 0.0206012 5.061 -0.325695 2.205 2.26134C0.630005 3.82986 0.0630048 6.13171 0.0210048 8.98356C-0.0419952 11.8354 -0.104995 17.1928 5.08201 18.6391V20.8595C5.08201 20.8595 5.04 21.7558 5.649 21.9391C6.363 22.1632 6.783 21.4706 7.476 20.7373C7.854 20.3299 8.379 19.7391 8.757 19.291C12.306 19.5965 15.036 18.9039 15.351 18.8021C16.065 18.578 20.118 18.0484 20.79 12.7113C21.462 7.21134 20.454 3.70764 18.627 2.13912Z" fill="#1E2738"/>
<path d="M15.456 12.9963C15.456 12.9963 14.784 12.4463 14.469 12.2019C14.154 11.9778 13.671 11.6722 13.398 11.5296C12.915 11.2648 12.411 11.4278 12.201 11.6926L11.781 12.2222C11.571 12.487 11.214 12.4463 11.13 12.4259C10.5 12.263 9.82801 11.8963 9.13501 11.2445C8.44201 10.5926 8.02201 9.90001 7.87501 9.20742L7.85401 9.16667C7.81201 8.88149 7.85401 8.7389 7.98001 8.53519L8.00101 8.51482C8.29501 8.25001 8.82001 7.94445 8.90401 7.6389C9.11401 7.10927 8.19001 6.00927 8.06401 5.82593C8.06401 5.82593 7.39201 4.97038 7.16101 4.80741C6.90901 4.60371 6.51001 4.48149 6.11101 4.72593H6.09001C4.93501 5.47964 4.53601 5.90741 4.64101 6.55927L4.70401 6.82408C5.29201 8.5963 6.40501 10.5111 8.08501 12.2019C9.74401 13.8519 11.55 14.85 13.314 15.5426C13.776 15.6852 14.259 15.563 14.742 15.1556C15.12 14.8093 15.414 14.4426 15.624 14.0556C15.855 13.6482 15.771 13.2611 15.456 12.9963Z" fill="#1E2738"/>
<path d="M12.705 9.08519C12.642 9.08519 12.579 9.02408 12.579 8.96297C12.558 8.49445 12.432 8.14816 12.201 7.90371C11.97 7.65927 11.634 7.53705 11.193 7.51668C11.13 7.51668 11.067 7.45557 11.067 7.37408C11.067 7.2926 11.13 7.25186 11.214 7.25186C11.739 7.27223 12.138 7.4352 12.411 7.72038C12.684 8.00557 12.831 8.41297 12.873 8.9426C12.852 9.02408 12.789 9.08519 12.705 9.08519Z" fill="#1E2738"/>
<path d="M14.007 9.53334C13.923 9.53334 13.881 9.47222 13.881 9.39074C13.902 8.51482 13.629 7.76111 13.083 7.17037C12.81 6.86482 12.474 6.64074 12.096 6.47778C11.718 6.31482 11.277 6.21297 10.773 6.17222C10.71 6.17222 10.647 6.11111 10.647 6.02963C10.647 5.94815 10.71 5.90741 10.794 5.90741C11.844 5.98889 12.684 6.35556 13.272 6.98704C13.86 7.63889 14.154 8.43334 14.133 9.39074C14.154 9.47222 14.091 9.53334 14.007 9.53334Z" fill="#1E2738"/>
<path d="M15.3511 10.0426C15.2881 10.0426 15.2251 9.98149 15.2251 9.92038C15.2251 9.14631 15.0991 8.43334 14.8681 7.82223C14.6371 7.21112 14.2801 6.68149 13.8181 6.23334C13.3561 5.7852 12.8311 5.4389 12.2641 5.21483C11.6971 4.99075 11.0461 4.86853 10.3531 4.86853C10.2901 4.86853 10.2271 4.80742 10.2271 4.74631C10.2271 4.66482 10.2901 4.62408 10.3531 4.62408C11.8021 4.64445 13.0201 5.11297 14.0071 6.07038C14.4901 6.5389 14.8681 7.10927 15.1201 7.76112C15.3721 8.41297 15.4981 9.14631 15.4981 9.96112C15.4981 9.98149 15.4351 10.0426 15.3511 10.0426Z" fill="#1E2738"/>
</g>
<defs>
<clipPath id="clip0_4_112">
<rect width="21" height="22" fill="white"/>
</clipPath>
</defs>
</svg>
